<svg width="49" height="49" viewBox="0 0 49 49" fill="none" xmlns="http://www.w3.org/2000/svg">
<g clip-path="url(#clip0_245_307)">
<path d="M49 0H0V49H49V0Z" fill="#616160"/>
<path d="M34.5382 11.0591H14.4618C13.526 11.0591 12.7604 11.8247 12.7604 12.7605V36.2396C12.7604 36.9202 13.1857 37.5157 13.7812 37.7709C14.3767 38.0261 15.1423 37.856 15.6527 37.4306L24.5 28.6685L33.3472 37.4306C33.6875 37.7709 34.1128 37.941 34.5382 37.941C34.7934 37.941 34.9635 37.856 35.2187 37.7709C35.8142 37.5157 36.2395 36.9202 36.2395 36.2396V12.7605C36.2395 11.8247 35.4739 11.0591 34.5382 11.0591ZM32.8368 32.1563L24.585 23.9046L16.1632 32.1563V14.4619H32.8368V32.1563Z" fill="white"/>
</g>
<defs>
<clipPath id="clip0_245_307">
<rect width="49" height="49" rx="4" fill="white"/>
</clipPath>
</defs>
</svg>
