<svg width="208" height="206" viewBox="0 0 208 206" fill="none" xmlns="http://www.w3.org/2000/svg">
<path d="M175.816 188.667C167.986 171.493 137.289 151.157 103.856 151.157C70.4264 151.157 39.7292 171.493 31.8956 188.667C25.3053 203.118 70.0559 202.948 70.0559 202.948H103.856H137.656C137.656 202.948 182.407 203.118 175.816 188.667Z" fill="#705AD7"/>
<path d="M103.856 195.236C122.125 195.236 136.936 180.387 136.936 162.07C136.936 143.753 122.125 128.904 103.856 128.904C85.5865 128.904 70.7762 143.753 70.7762 162.07C70.7762 180.387 85.5865 195.236 103.856 195.236Z" fill="#705AD7"/>
<path d="M103.856 127.501C83.2677 129.039 72.023 141.025 78.4678 155.587C82.3846 164.434 91.9948 172.33 103.856 177.511C115.717 172.33 125.327 164.434 129.244 155.587C135.693 141.025 124.444 129.039 103.856 127.501Z" fill="#A0D9C2"/>
<path d="M134.886 142.425C125.109 143.369 128.313 158.185 124.32 169.969C120.985 179.809 107.79 192.035 107.956 199.84C108.105 200.087 108.265 200.33 108.431 200.566C109.31 200.052 111.586 198.784 113.871 198.01C112.6 200.732 111.683 203.069 111.284 204.118C111.562 204.437 111.845 204.75 112.133 205.055C122.103 207.295 146.809 188.358 149.687 177.097C152.835 164.803 144.662 141.48 134.886 142.425Z" fill="#9B7FFF"/>
<path d="M121.521 203.333C125.071 201.822 128.946 199.52 132.666 196.809C132.666 196.809 130.335 193.864 126.221 191.597C126.221 191.597 127.163 188.663 126.456 184.67C121.947 185 120.174 186.243 120.174 186.243C120.095 184.038 117.518 181.847 117.518 181.847C115.312 184.996 113.019 188.128 111.229 191.069C114.526 194.993 118.709 199.972 121.521 203.333Z" fill="#C8E7C2"/>
<path d="M121.823 189.121C119.433 187.41 116.32 187.16 113.123 188.128C108.188 193.955 107.527 199.243 108.14 202.68C108.14 202.68 109.293 202.888 112.109 199.548C110.536 202.18 110.228 204.715 110.228 204.715C113.397 206.111 119.717 204.892 125.127 201.6C126.328 196.399 125.244 191.573 121.823 189.121Z" fill="#523259"/>
<path d="M72.8299 142.425C82.6063 143.369 79.4029 158.185 83.3959 169.969C86.7309 179.809 99.9254 192.035 99.7592 199.84C99.6102 200.087 99.4509 200.33 99.2847 200.566C98.4051 200.052 96.1298 198.784 93.8441 198.01C95.1151 200.732 96.0328 203.069 96.4311 204.118C96.154 204.437 95.8701 204.75 95.5826 205.055C85.6123 207.295 60.9063 188.358 58.0284 177.097C54.8804 164.803 63.0534 141.48 72.8299 142.425Z" fill="#9B7FFF"/>
<path d="M86.1906 203.333C82.6409 201.822 78.7657 199.52 75.0463 196.809C75.0463 196.809 77.377 193.864 81.4911 191.597C81.4911 191.597 80.5492 188.663 81.2557 184.67C85.7647 185 87.5378 186.243 87.5378 186.243C87.6174 184.038 90.194 181.847 90.194 181.847C92.4 184.996 94.6926 188.128 96.483 191.069C93.1861 194.993 89.0061 199.972 86.1906 203.333Z" fill="#C8E7C2"/>
<path d="M85.8893 189.121C88.2789 187.41 91.3922 187.16 94.5887 188.128C99.5237 193.955 100.185 199.243 99.5721 202.68C99.5721 202.68 98.4189 202.888 95.6034 199.548C97.1757 202.18 97.4839 204.715 97.4839 204.715C94.3151 206.111 87.9949 204.892 82.5855 201.6C81.3838 196.399 82.4712 191.573 85.8893 189.121Z" fill="#523259"/>
<path d="M207.712 83.3319C207.774 87.5888 192.73 92.8803 182.251 92.0574C171.775 91.2345 156.537 83.4465 156.406 79.3008C156.274 75.1585 171.332 66.7038 181.811 67.5267C192.287 68.3531 207.653 79.0785 207.712 83.3319Z" fill="#705AD7"/>
<path d="M202.244 83.693C202.87 85.9638 190.943 89.9707 183.054 89.4915C175.165 89.0124 163.792 83.9152 163.612 81.3493C163.436 78.7799 174.878 73.0925 182.767 73.5717C190.656 74.0474 201.617 81.4222 202.244 83.693Z" fill="#F1D0E6"/>
<path d="M0.000193099 83.3319C-0.0621432 87.5888 14.9817 92.8803 25.4611 92.0574C35.9371 91.2345 51.1749 83.4465 51.3065 79.3008C51.4381 75.1585 36.3804 66.7038 25.9009 67.5267C15.425 68.3531 0.0625294 79.0785 0.000193099 83.3319Z" fill="#705AD7"/>
<path d="M5.4685 83.693C4.84167 85.9638 16.7687 89.9707 24.6577 89.4915C32.5467 89.0124 43.9196 83.9152 44.0997 81.3493C44.2763 78.7799 32.8342 73.0925 24.9451 73.5717C17.0596 74.0474 6.09533 81.4222 5.4685 83.693Z" fill="#F1D0E6"/>
<path d="M198.299 22.5207C197.662 21.9513 196.689 22.0068 196.121 22.6457L195.968 22.8193C195.968 22.8193 195.896 22.9027 195.754 23.0589C195.615 23.2117 195.407 23.4339 195.141 23.6943C194.871 23.9547 194.531 24.2568 194.129 24.5762C193.925 24.736 193.703 24.8991 193.471 25.0658C193.232 25.2325 192.98 25.3957 192.72 25.5693C192.183 25.9026 191.598 26.2359 190.968 26.5415C190.337 26.8435 189.662 27.1144 188.994 27.3297C188.325 27.538 187.65 27.6873 187.085 27.722C186.517 27.7671 186.092 27.6769 185.97 27.6074C185.908 27.5692 185.905 27.5623 185.905 27.5519C185.901 27.5519 185.887 27.538 185.835 27.4685C185.821 27.4581 185.811 27.4269 185.794 27.406C185.78 27.3817 185.759 27.3401 185.749 27.3297C185.749 27.3297 185.749 27.3297 185.745 27.3297C185.742 27.3297 185.745 27.3505 185.714 27.2672L185.648 27.0935L185.614 27.0067C185.631 27.0554 185.641 27.0831 185.645 27.1005C185.641 27.0935 185.641 27.0901 185.645 27.104L185.641 27.1005V27.0831L185.631 27.0553C185.52 26.7567 185.409 26.4581 185.319 26.1526C185.129 25.545 185.001 24.913 184.886 24.2742C184.782 23.6353 184.72 22.986 184.679 22.361C184.64 21.7325 184.634 21.1319 184.627 20.5763C184.63 20.0242 184.634 19.5208 184.647 19.1041C184.654 18.6805 184.661 18.3472 184.665 18.118C184.665 18.0035 184.665 17.9201 184.661 17.8646C184.661 17.8333 184.654 17.8264 184.651 17.8125C184.651 17.7986 184.654 17.7882 184.651 17.7882C184.717 17.4618 184.689 17.1181 184.547 16.7882C184.18 15.9236 183.182 15.5243 182.324 15.8924L181.867 16.0903C181.867 16.0903 181.86 16.0938 181.842 16.1077C181.825 16.1216 181.794 16.1528 181.763 16.1771C181.697 16.2292 181.603 16.3021 181.493 16.3993C181.264 16.5938 180.956 16.882 180.599 17.2778C180.246 17.6771 179.841 18.1805 179.439 18.809C179.034 19.434 178.639 20.1874 178.293 21.0624C177.95 21.9374 177.673 22.9443 177.51 24.0624C177.361 25.1804 177.333 26.4095 177.52 27.6838C177.61 28.3192 177.756 28.965 177.946 29.6039L177.964 29.6629L177.971 29.6942L177.974 29.7081C177.991 29.7602 177.939 29.6178 178.016 29.8261L178.047 29.9129L178.109 30.0865C178.119 30.1213 178.171 30.2567 178.22 30.3713L178.365 30.715C178.462 30.9268 178.552 31.1108 178.656 31.3087C178.767 31.5066 178.871 31.6976 178.999 31.8921C178.999 31.8921 179.19 33.899 176.398 35.3156C173.607 36.7288 170.774 36.0343 170.49 36.0135C170.566 34.9788 170.587 33.9441 170.549 32.9163C170.528 32.2636 170.473 31.6212 170.407 30.9719L170.348 30.4407L170.317 30.1768C170.307 30.09 170.296 30.0449 170.282 29.9754L170.217 29.597L170.21 29.5484L170.206 29.524L170.203 29.5136V29.5067L170.196 29.4199L170.175 29.3088L170.133 29.09C170.019 28.5067 169.912 27.9234 169.773 27.354C169.649 26.7776 169.5 26.2116 169.347 25.6526C169.202 25.0901 169.022 24.538 168.859 23.9825C168.675 23.4339 168.506 22.8853 168.305 22.3471C168.114 21.8055 167.903 21.2707 167.695 20.7395C167.477 20.2083 167.259 19.684 167.024 19.1597C166.947 18.9895 166.861 18.8194 166.781 18.6458C166.913 18.4618 167.048 18.2743 167.145 18.0937C167.276 17.8576 167.404 17.6215 167.526 17.3854C167.647 17.1458 167.723 16.9271 167.82 16.6979C167.91 16.4722 168.004 16.2431 168.059 16.0313C168.592 14.2883 168.686 12.7883 168.675 11.4341C168.662 11.1008 168.648 10.771 168.634 10.4446C168.606 10.1286 168.575 9.81613 168.547 9.50711C168.509 9.20503 168.478 8.9099 168.433 8.62171C168.385 8.33699 168.336 8.05575 168.288 7.78145C168.087 6.69467 167.824 5.72941 167.56 4.88915C167.294 4.04889 167.024 3.33363 166.778 2.7503C166.528 2.16698 166.314 1.71908 166.151 1.41353C165.981 1.10103 165.891 0.93437 165.891 0.93437C165.68 0.54549 165.299 0.246885 164.831 0.153137C163.997 -0.0100543 163.19 0.535073 163.031 1.37186L163.01 1.52811C163.01 1.52811 163.003 1.5663 162.989 1.64269C162.975 1.71908 162.954 1.8406 162.93 1.99685C162.882 2.30934 162.819 2.77114 162.74 3.34751C162.667 3.92042 162.58 4.61485 162.476 5.40997C162.379 6.19468 162.262 7.06966 162.134 7.99325C162.061 8.44463 161.985 8.91684 161.908 9.40641C161.863 9.64252 161.818 9.8821 161.77 10.1251C161.721 10.3578 161.296 14.0035 159.817 14.0452C157.791 14.1042 154.217 10.5904 154.217 10.5904C153.413 9.92029 152.665 9.17725 151.962 8.43074C151.259 7.68423 150.615 6.93077 150.023 6.21204C149.434 5.48983 148.904 4.80234 148.433 4.1843C147.969 3.56279 147.561 3.01072 147.232 2.55239C146.903 2.09407 146.643 1.72949 146.466 1.48297C146.286 1.2295 146.203 1.13228 146.2 1.12187C145.916 0.264246 144.995 -0.201023 144.139 0.0836937C143.284 0.36841 142.82 1.292 143.104 2.14962C143.1 2.13573 143.121 2.35795 143.156 2.69822C143.197 3.04197 143.263 3.54195 143.384 4.16347C143.502 4.78846 143.675 5.53844 143.924 6.38564C144.17 7.23632 144.492 8.18422 144.915 9.20156C145.334 10.2189 145.86 11.3057 146.515 12.4202C147.169 13.5383 147.962 14.6771 148.915 15.8021C149.874 16.9167 151.01 18.0069 152.34 18.9687C153.67 19.9305 155.207 20.7534 156.877 21.302L157.51 21.486L157.829 21.5763L157.988 21.6214L158.03 21.6319L158.051 21.6388L158.31 21.6909L158.373 21.7013L158.511 21.7256C158.525 21.802 158.546 21.8749 158.56 21.9513C158.646 22.3992 158.719 22.8506 158.792 23.302C158.854 23.7568 158.92 24.2047 158.968 24.6561C159.027 25.1075 159.055 25.5589 159.096 26.0068C159.121 26.4581 159.159 26.906 159.166 27.3505C159.18 27.7984 159.19 28.2394 159.18 28.6803C159.183 29.1213 159.159 29.5588 159.141 29.9928L159.135 30.156L159.131 30.2358C159.131 30.2532 159.121 30.0865 159.124 30.1595V30.1664V30.1768V30.2011L159.121 30.2497L159.1 30.6351C159.096 30.6942 159.093 30.774 159.09 30.8157L159.069 30.9337L159.031 31.1664C158.975 31.5379 158.916 31.9164 158.833 32.2844C158.681 33.024 158.47 33.7427 158.217 34.4371C158.002 35.0205 157.753 35.583 157.476 36.1142L156.523 36.6697C155.727 37.1454 154.944 37.628 154.168 38.1246C152.62 39.1141 151.107 40.1488 149.621 41.2321C146.65 43.3988 143.779 45.7563 141.064 48.3952C138.737 50.6625 136.517 53.1347 134.526 55.9159C134.335 55.5999 134.158 55.2735 133.996 54.9332C133.854 54.5548 133.667 54.1763 133.57 53.7701C133.514 53.5687 133.438 53.3708 133.397 53.1659C133.355 52.9576 133.317 52.7493 133.275 52.5444C133.255 52.4402 133.23 52.3361 133.216 52.2319L133.185 51.9159C133.165 51.7007 133.14 51.4923 133.119 51.2805C133.092 50.8569 133.106 50.4333 133.095 50.0132C133.126 49.5896 133.158 49.1764 133.185 48.7771C133.23 48.3743 133.307 47.982 133.365 47.6001C133.41 47.2146 133.525 46.857 133.601 46.5063C133.691 46.1591 133.75 45.8188 133.861 45.5133C134.065 44.8987 134.21 44.3397 134.394 43.9022C134.747 43.0099 134.948 42.4995 134.948 42.4995L134.997 42.3745C135.339 41.5064 134.913 40.5238 134.048 40.1801C133.348 39.9023 132.572 40.128 132.119 40.6835C132.119 40.6835 131.731 41.1592 131.052 41.9925C130.702 42.4057 130.346 42.9647 129.895 43.5863C129.663 43.8918 129.469 44.2564 129.237 44.6244C129.016 45.0029 128.756 45.3814 128.548 45.8223C128.33 46.2563 128.088 46.7077 127.866 47.1938C127.662 47.6869 127.443 48.2042 127.236 48.7424C127.062 49.2979 126.865 49.8674 126.706 50.4715C126.637 50.7771 126.567 51.0896 126.498 51.4021C126.463 51.5618 126.429 51.718 126.394 51.8812C126.366 52.0444 126.349 52.2076 126.325 52.3743C126.283 52.7076 126.238 53.0444 126.197 53.3812C126.159 53.7215 126.155 54.0721 126.138 54.4228C126.089 55.1277 126.148 55.8499 126.186 56.586C126.339 58.0512 126.643 59.5651 127.18 61.0234C127.72 62.4747 128.451 63.8775 129.327 65.1622C129.372 65.2247 129.421 65.2872 129.466 65.3497C129.061 66.4781 128.714 67.6413 128.434 68.8392L128.43 68.86C127.572 72.5961 129.895 76.3251 133.622 77.1897C137.348 78.0543 141.067 75.721 141.93 71.985L141.933 71.9711C142.463 69.6725 143.571 67.2941 145.098 64.9921C146.626 62.6865 148.555 60.4574 150.709 58.3637C152.239 56.8742 153.891 55.4471 155.619 54.0895C155.716 54.2423 155.817 54.3951 155.924 54.5374C156.125 54.8013 156.333 55.0721 156.544 55.3499C157.417 56.402 158.421 57.4262 159.578 58.2873C160.731 59.1554 161.995 59.9435 163.377 60.5546C164.755 61.1692 166.227 61.6414 167.751 61.9331C169.282 62.2074 170.854 62.2977 172.395 62.197C173.943 62.0893 175.442 61.7491 176.838 61.2838C177.524 61.0164 178.206 60.7734 178.826 60.4401C179.138 60.2803 179.456 60.1345 179.751 59.9574C180.041 59.7769 180.329 59.5998 180.613 59.4262C180.755 59.3359 180.897 59.2526 181.032 59.1588C181.163 59.0616 181.295 58.9644 181.423 58.8672C181.68 58.6727 181.932 58.4818 182.185 58.2943C182.67 57.9019 183.106 57.4853 183.539 57.0999C183.944 56.6901 184.325 56.277 184.689 55.8881C185.039 55.4853 185.35 55.0791 185.655 54.7041C185.97 54.3326 186.209 53.9367 186.462 53.5826C186.705 53.218 186.954 52.8916 187.137 52.5548C187.518 51.8882 187.875 51.3326 188.111 50.843C188.588 49.8813 188.862 49.3292 188.862 49.3292C189.181 48.6868 189.066 47.8882 188.526 47.3605C187.858 46.7077 186.788 46.7251 186.14 47.3952L186.047 47.4924C186.047 47.4924 185.666 47.8848 184.997 48.5757C184.672 48.9229 184.225 49.284 183.75 49.725C183.518 49.9507 183.231 50.1451 182.954 50.3674C182.666 50.5826 182.386 50.8326 182.057 51.0305C181.731 51.2389 181.409 51.468 181.06 51.6764C180.71 51.8673 180.346 52.0652 179.972 52.2666C179.588 52.4263 179.207 52.6138 178.812 52.7631C178.615 52.8291 178.41 52.8951 178.209 52.9645L177.908 53.0652C177.808 53.093 177.7 53.1138 177.6 53.1381C177.396 53.1867 177.191 53.2354 176.987 53.284C176.783 53.3291 176.571 53.343 176.367 53.3742C175.958 53.4541 175.539 53.4367 175.138 53.4645C174.32 53.4402 173.531 53.3534 172.783 53.1381C172.035 52.9159 171.339 52.6138 170.701 52.2458C170.071 51.8604 169.51 51.4125 169.029 50.9437C168.544 50.4785 168.177 49.9542 167.886 49.4854C167.585 49.0132 167.439 48.548 167.339 48.1834C167.325 48.0896 167.308 48.0028 167.29 47.923C167.273 47.8396 167.287 47.7667 167.28 47.6973C167.256 47.5549 167.308 47.4508 167.314 47.3605C167.314 47.357 167.318 47.3535 167.318 47.3501C167.404 47.3362 167.495 47.3188 167.585 47.3014C167.616 47.4091 167.637 47.5133 167.64 47.607V47.6556C167.64 47.673 167.637 47.6973 167.647 47.6591C167.657 47.6139 167.668 47.5723 167.678 47.5306C167.699 47.4508 167.716 47.3744 167.73 47.3084C167.733 47.2945 167.737 47.2841 167.74 47.2702C168.166 47.1903 168.627 47.0966 169.115 46.9855C170.383 46.6904 171.841 46.2737 173.365 45.6904C174.126 45.3883 174.906 45.0654 175.685 44.6696C176.461 44.2911 177.236 43.8432 177.988 43.3745C178.736 42.8814 179.463 42.3641 180.135 41.7842C180.301 41.6384 180.467 41.496 180.634 41.3537C180.793 41.2009 180.952 41.0481 181.108 40.8988C181.423 40.6072 181.711 40.2773 181.995 39.9683C182.552 39.3363 183.037 38.6801 183.453 38.0412C183.858 37.3954 184.208 36.767 184.471 36.1697C184.54 36.0204 184.606 35.8781 184.668 35.7357C184.689 35.6836 184.706 35.635 184.727 35.583C186.13 35.7982 187.418 35.6663 188.526 35.4059C189.939 35.0691 191.134 34.5274 192.183 33.9024C193.233 33.2774 194.129 32.5587 194.905 31.8087C195.677 31.0622 196.325 30.2775 196.848 29.5032C197.374 28.7289 197.776 27.9616 198.071 27.2533C198.368 26.5449 198.548 25.8887 198.659 25.3401C198.77 24.7915 198.805 24.3505 198.815 24.0485C198.822 23.7464 198.815 23.5867 198.815 23.5867C198.794 23.2013 198.621 22.8054 198.299 22.5207Z" fill="#523259"/>
<path d="M9.41298 22.5207C10.0502 21.9513 11.0233 22.0068 11.5913 22.6457L11.7437 22.8193C11.7437 22.8193 11.8164 22.9027 11.9584 23.0589C12.0969 23.2117 12.3047 23.4339 12.5714 23.6943C12.8415 23.9547 13.1809 24.2568 13.5826 24.5762C13.7869 24.736 14.0085 24.8991 14.2406 25.0658C14.4795 25.2325 14.7323 25.3957 14.9921 25.5693C15.5289 25.9026 16.1141 26.2359 16.7444 26.5415C17.3747 26.8435 18.05 27.1144 18.7184 27.3297C19.3868 27.538 20.0621 27.6873 20.6266 27.722C21.1945 27.7671 21.6205 27.6769 21.7417 27.6074C21.8041 27.5692 21.8075 27.5623 21.8075 27.5519C21.811 27.5519 21.8248 27.538 21.8768 27.4685C21.8906 27.4581 21.901 27.4269 21.9183 27.406C21.9322 27.3817 21.953 27.3401 21.9634 27.3297C21.9634 27.3297 21.9634 27.3297 21.9668 27.3297C21.9703 27.3297 21.9668 27.3505 21.998 27.2672L22.0638 27.0935L22.0984 27.0067C22.0811 27.0554 22.0707 27.0831 22.0673 27.1005C22.0707 27.0935 22.0707 27.0901 22.0673 27.104L22.0707 27.1005V27.0831L22.0811 27.0553C22.1919 26.7567 22.3027 26.4581 22.3928 26.1526C22.5833 25.545 22.7114 24.913 22.8257 24.2742C22.9296 23.6353 22.9919 22.986 23.0335 22.361C23.0716 21.7325 23.0785 21.1319 23.0854 20.5763C23.082 20.0242 23.0785 19.5208 23.0646 19.1041C23.0577 18.6805 23.0508 18.3472 23.0473 18.118C23.0473 18.0035 23.0473 17.9201 23.0508 17.8646C23.0508 17.8333 23.0577 17.8264 23.0612 17.8125C23.0612 17.7986 23.0612 17.7882 23.0612 17.7882C22.9954 17.4618 23.0265 17.1181 23.1651 16.7882C23.5322 15.9236 24.5295 15.5243 25.3884 15.8924L25.8455 16.0903C25.8455 16.0903 25.8525 16.0938 25.8698 16.1077C25.8871 16.1216 25.9183 16.1528 25.9494 16.1771C26.0152 16.2292 26.1087 16.3021 26.2195 16.3993C26.4446 16.5938 26.7563 16.882 27.113 17.2778C27.4663 17.6771 27.8715 18.1805 28.2732 18.809C28.6784 19.434 29.0732 20.1874 29.4195 21.0624C29.7623 21.9374 30.0394 22.9443 30.2021 24.0624C30.3511 25.1804 30.3788 26.4095 30.1918 27.6838C30.1017 28.3192 29.9563 28.965 29.7658 29.6039L29.7485 29.6629L29.7415 29.6942L29.7381 29.7081C29.7208 29.7602 29.7727 29.6178 29.6965 29.8261L29.6654 29.9129L29.603 30.0865C29.5926 30.1213 29.5407 30.2567 29.4922 30.3713L29.3468 30.715C29.2498 30.9268 29.1597 31.1108 29.0559 31.3087C28.945 31.5066 28.8411 31.6976 28.713 31.8921C28.713 31.8921 28.5225 33.899 31.3138 35.3156C34.1051 36.7288 36.9379 36.0343 37.2219 36.0135C37.1457 34.9788 37.1249 33.9441 37.1665 32.9163C37.1873 32.2636 37.2427 31.6212 37.3085 30.9719L37.3674 30.4407L37.3985 30.1768C37.4089 30.09 37.4193 30.0449 37.4332 29.9754L37.499 29.597L37.5059 29.5484L37.5093 29.524L37.5128 29.5136V29.5067L37.5197 29.4199L37.5405 29.3088L37.5821 29.09C37.6964 28.5067 37.8037 27.9234 37.9422 27.354C38.0669 26.7776 38.2158 26.2116 38.3682 25.6526C38.5137 25.0901 38.6937 24.538 38.8565 23.9825C39.0401 23.4339 39.2097 22.8853 39.4106 22.3471C39.6011 21.8055 39.8123 21.2707 40.0201 20.7395C40.2383 20.2083 40.4565 19.684 40.692 19.1597C40.7682 18.9895 40.8547 18.8194 40.9344 18.6458C40.8028 18.4618 40.6677 18.2743 40.5708 18.0937C40.4392 17.8576 40.311 17.6215 40.1898 17.3854C40.0686 17.1458 39.9924 16.9271 39.8954 16.6979C39.8054 16.4722 39.7119 16.2431 39.6565 16.0313C39.1232 14.2883 39.0297 12.7883 39.0401 11.4341C39.0539 11.1008 39.0678 10.771 39.0816 10.4446C39.1093 10.1286 39.1405 9.81613 39.1682 9.50711C39.2063 9.20503 39.2375 8.9099 39.2825 8.62171C39.331 8.33699 39.3794 8.05575 39.4279 7.78145C39.6288 6.69467 39.892 5.72941 40.1552 4.88915C40.4218 4.04889 40.692 3.33363 40.9378 2.7503C41.1872 2.16698 41.4019 1.71908 41.5647 1.41353C41.7344 1.10103 41.8244 0.93437 41.8244 0.93437C42.0357 0.54549 42.4166 0.246885 42.8841 0.153137C43.7187 -0.0100543 44.5257 0.535073 44.685 1.37186L44.7161 1.52811C44.7161 1.52811 44.723 1.5663 44.7369 1.64269C44.7508 1.71908 44.7715 1.8406 44.7958 1.99685C44.8443 2.30934 44.9066 2.77114 44.9862 3.34751C45.059 3.92042 45.1456 4.61485 45.2494 5.40997C45.3464 6.19468 45.4642 7.06966 45.5923 7.99325C45.665 8.44463 45.7412 8.91684 45.8174 9.40641C45.8624 9.64252 45.9074 9.8821 45.9559 10.1251C46.0044 10.3578 46.4304 14.0035 47.9091 14.0452C49.9351 14.1042 53.509 10.5904 53.509 10.5904C54.3125 9.92029 55.0605 9.17725 55.7635 8.43074C56.4665 7.68423 57.1107 6.93077 57.7029 6.21204C58.2916 5.48983 58.8215 4.80234 59.2924 4.1843C59.7565 3.56279 60.1651 3.01072 60.4941 2.55239C60.8231 2.09407 61.0829 1.72949 61.2595 1.48297C61.4396 1.2295 61.5227 1.13228 61.5262 1.12187C61.8101 0.264246 62.7313 -0.201023 63.5867 0.0836937C64.4421 0.36841 64.9062 1.292 64.6222 2.14962C64.6257 2.13573 64.6049 2.35795 64.5702 2.69822C64.5287 3.04197 64.4629 3.54195 64.3417 4.16347C64.2239 4.78846 64.0508 5.53844 63.8014 6.38564C63.5555 7.23632 63.2335 8.18422 62.811 9.20156C62.3919 10.2189 61.8655 11.3057 61.211 12.4202C60.5565 13.5383 59.7634 14.6771 58.8111 15.8021C57.8518 16.9167 56.7159 18.0069 55.386 18.9687C54.0562 19.9305 52.5186 20.7534 50.8493 21.302L50.2156 21.486L49.897 21.5763L49.7377 21.6214L49.6961 21.6319L49.6753 21.6388L49.4156 21.6909L49.3533 21.7013L49.2147 21.7256C49.2009 21.802 49.1801 21.8749 49.1662 21.9513C49.0797 22.3992 49.0069 22.8506 48.9342 23.302C48.8719 23.7568 48.8061 24.2047 48.7576 24.6561C48.6987 25.1075 48.671 25.5589 48.6295 26.0068C48.6052 26.4581 48.5671 26.906 48.5602 27.3505C48.5463 27.7984 48.536 28.2394 48.5463 28.6803C48.5429 29.1213 48.5671 29.5588 48.5844 29.9928L48.5914 30.156L48.5948 30.2358C48.5948 30.2532 48.6052 30.0865 48.6018 30.1595V30.1664V30.1768V30.2011L48.6052 30.2497L48.626 30.6351C48.6295 30.6942 48.6329 30.774 48.6364 30.8157L48.6572 30.9337L48.6953 31.1664C48.7507 31.5379 48.8095 31.9164 48.8927 32.2844C49.045 33.024 49.2563 33.7427 49.5091 34.4371C49.7238 35.0205 49.9732 35.583 50.2502 36.1142L51.2026 36.6697C51.9991 37.1454 52.7817 37.628 53.5575 38.1246C55.1055 39.1141 56.6189 40.1488 58.1046 41.2321C61.076 43.3988 63.9469 45.7563 66.662 48.3952C68.9892 50.6625 71.2091 53.1347 73.2004 55.9159C73.3908 55.5999 73.5675 55.2735 73.7302 54.9332C73.8722 54.5548 74.0592 54.1763 74.1562 53.7701C74.2116 53.5687 74.2878 53.3708 74.3294 53.1659C74.3709 52.9576 74.409 52.7493 74.4506 52.5444C74.4713 52.4402 74.4956 52.3361 74.5094 52.2319L74.5406 51.9159C74.5614 51.7007 74.5856 51.4923 74.6064 51.2805C74.6341 50.8569 74.6203 50.4333 74.6306 50.0132C74.5995 49.5896 74.5683 49.1764 74.5406 48.7771C74.4956 48.3743 74.4194 47.982 74.3605 47.6001C74.3155 47.2146 74.2012 46.857 74.125 46.5063C74.035 46.1591 73.9761 45.8188 73.8653 45.5133C73.661 44.8987 73.5155 44.3397 73.332 43.9022C72.9787 43.0099 72.7779 42.4995 72.7779 42.4995L72.7294 42.3745C72.3865 41.5064 72.8125 40.5238 73.6783 40.1801C74.3778 39.9023 75.1536 40.128 75.6072 40.6835C75.6072 40.6835 75.9951 41.1592 76.6739 41.9925C77.0237 42.4057 77.3804 42.9647 77.8306 43.5863C78.0626 43.8918 78.2565 44.2564 78.4886 44.6244C78.7102 45.0029 78.9699 45.3814 79.1777 45.8223C79.3959 46.2563 79.6383 46.7077 79.86 47.1938C80.0643 47.6869 80.2825 48.2042 80.4903 48.7424C80.6634 49.2979 80.8608 49.8674 81.0201 50.4715C81.0894 50.7771 81.1586 51.0896 81.2279 51.4021C81.2625 51.5618 81.2972 51.718 81.3318 51.8812C81.3595 52.0444 81.3768 52.2076 81.4011 52.3743C81.4426 52.7076 81.4876 53.0444 81.5292 53.3812C81.5673 53.7215 81.5673 54.0721 81.5881 54.4228C81.6366 55.1277 81.5777 55.8499 81.5396 56.586C81.3872 58.0512 81.0825 59.5651 80.5457 61.0234C80.002 62.4747 79.2747 63.8775 78.3985 65.1622C78.3535 65.2247 78.305 65.2872 78.26 65.3497C78.6652 66.4781 79.0115 67.6413 79.292 68.8392L79.2955 68.86C80.1543 72.5961 77.8306 76.3251 74.1042 77.1897C70.3779 78.0543 66.6585 75.721 65.7962 71.985L65.7927 71.9711C65.2629 69.6725 64.1547 67.2941 62.6274 64.9921C61.1002 62.6865 59.1712 60.4574 57.0172 58.3637C55.4865 56.8742 53.8345 55.4471 52.1064 54.0895C52.0095 54.2423 51.909 54.3951 51.8017 54.5374C51.6008 54.8013 51.393 55.0721 51.1818 55.3499C50.3091 56.402 49.3048 57.4262 48.1481 58.2873C46.9949 59.1554 45.7308 59.9435 44.349 60.5546C42.9707 61.1692 41.4989 61.6414 39.9751 61.9331C38.4444 62.2074 36.8721 62.2977 35.331 62.197C33.783 62.0893 32.2835 61.7491 30.8878 61.2838C30.2021 61.0164 29.5199 60.7734 28.9 60.4401C28.5883 60.2803 28.2697 60.1345 27.9754 59.9574C27.6845 59.7769 27.397 59.5998 27.113 59.4262C26.971 59.3359 26.8291 59.2526 26.694 59.1588C26.5624 59.0616 26.4308 58.9644 26.3027 58.8672C26.0464 58.6727 25.7936 58.4818 25.5408 58.2943C25.0559 57.9019 24.6196 57.4853 24.1867 57.0999C23.7815 56.6901 23.4006 56.277 23.0369 55.8881C22.6872 55.4853 22.3755 55.0791 22.0707 54.7041C21.7556 54.3326 21.5166 53.9367 21.2638 53.5826C21.0214 53.218 20.772 52.8916 20.5885 52.5548C20.2076 51.8882 19.8509 51.3326 19.6154 50.843C19.1374 49.8813 18.8639 49.3292 18.8639 49.3292C18.5453 48.6868 18.6595 47.8882 19.1998 47.3605C19.8682 46.7077 20.9383 46.7251 21.5859 47.3952L21.6794 47.4924C21.6794 47.4924 22.0603 47.8848 22.7287 48.5757C23.0542 48.9229 23.501 49.284 23.9754 49.725C24.2075 49.9507 24.4949 50.1451 24.772 50.3674C25.0594 50.5826 25.3399 50.8326 25.6689 51.0305C25.9944 51.2389 26.3165 51.468 26.6663 51.6764C27.0161 51.8673 27.3797 52.0652 27.7537 52.2666C28.1381 52.4263 28.5191 52.6138 28.9139 52.7631C29.1113 52.8291 29.3156 52.8951 29.5164 52.9645L29.8177 53.0652C29.9182 53.093 30.0255 53.1138 30.126 53.1381C30.3303 53.1867 30.5346 53.2354 30.7389 53.284C30.9433 53.3291 31.1545 53.343 31.3588 53.3742C31.7675 53.4541 32.1865 53.4367 32.5882 53.4645C33.4055 53.4402 34.1951 53.3534 34.9432 53.1381C35.6912 52.9159 36.3873 52.6138 37.0245 52.2458C37.6548 51.8604 38.2158 51.4125 38.6972 50.9437C39.182 50.4785 39.5491 49.9542 39.84 49.4854C40.1413 49.0132 40.2868 48.548 40.3872 48.1834C40.4011 48.0896 40.4184 48.0028 40.4357 47.923C40.453 47.8396 40.4392 47.7667 40.4461 47.6973C40.4703 47.5549 40.4184 47.4508 40.408 47.3605C40.408 47.357 40.4045 47.3535 40.4045 47.3501C40.3179 47.3362 40.2279 47.3188 40.1379 47.3014C40.1067 47.4091 40.0859 47.5133 40.0825 47.607V47.6556C40.0825 47.673 40.0859 47.6973 40.0755 47.6591C40.0651 47.6139 40.0548 47.5723 40.0444 47.5306C40.0236 47.4508 40.0097 47.3744 39.9924 47.3084C39.989 47.2945 39.9855 47.2841 39.982 47.2702C39.5561 47.1903 39.0955 47.0966 38.6072 46.9855C37.3397 46.6904 35.8817 46.2737 34.3579 45.6904C33.596 45.3883 32.8168 45.0654 32.0376 44.6696C31.2619 44.2911 30.4861 43.8432 29.7346 43.3745C28.9866 42.8814 28.2593 42.3641 27.584 41.7842C27.4178 41.6384 27.2516 41.496 27.0853 41.3537C26.926 41.2009 26.7667 41.0481 26.6109 40.8988C26.2957 40.6072 26.0083 40.2773 25.7243 39.9683C25.1668 39.3363 24.6819 38.6801 24.2663 38.0412C23.8612 37.3954 23.5114 36.767 23.2482 36.1697C23.1789 36.0204 23.1131 35.8781 23.0508 35.7357C23.03 35.6836 23.0127 35.635 22.9919 35.583C21.5893 35.7982 20.3011 35.6663 19.1929 35.4059C17.7799 35.0691 16.5851 34.5274 15.5358 33.9024C14.4865 33.2774 13.5895 32.5587 12.8138 31.8087C12.0415 31.0622 11.3939 30.2775 10.871 29.5032C10.3446 28.7289 9.94284 27.9616 9.64847 27.2533C9.35064 26.5449 9.17056 25.8887 9.05974 25.3401C8.94892 24.7915 8.91429 24.3505 8.9039 24.0485C8.89697 23.7464 8.9039 23.5867 8.9039 23.5867C8.92121 23.2013 9.09437 22.8054 9.41298 22.5207Z" fill="#523259"/>
<path d="M103.877 54.2422H103.839C64.9201 54.2526 33.2463 68.3391 33.3744 95.2969C33.4887 119.355 52.9965 144.025 80.3795 149.386C83.7179 154.612 92.9541 158.368 103.835 158.379H103.873C114.755 158.368 123.991 154.612 127.329 149.386C154.712 144.025 174.22 119.355 174.334 95.2969C174.466 68.3391 142.795 54.2526 103.877 54.2422Z" fill="#705AD7"/>
<path d="M103.873 57.5686H103.839C68.6567 57.579 40.0271 70.8774 40.1413 96.3247C40.2452 119.036 57.8795 142.324 82.6339 147.386C85.6538 152.317 93.9999 155.865 103.839 155.876H103.873C113.712 155.869 122.058 152.317 125.078 147.386C149.833 142.324 167.467 119.036 167.571 96.3247C167.688 70.8774 139.055 57.5755 103.873 57.5686Z" fill="#856DEC"/>
<path d="M174.324 94.3317C166.785 86.2034 152.42 80.7104 135.932 80.7104C123.395 80.7104 112.081 83.8875 104.067 88.9846C96.0501 83.8875 84.7395 80.7104 72.203 80.7104C55.3999 80.7104 40.7959 86.4187 33.3813 94.8074C33.3813 94.9706 33.3744 95.1338 33.3744 95.3004C33.4125 102.901 35.3865 110.564 38.9327 117.661C47.0018 112.019 58.9115 108.446 72.203 108.446C79.0358 108.446 85.5014 109.394 91.271 111.074C93.7887 104.182 98.547 99.5295 104.008 99.5295C109.477 99.5295 114.242 104.196 116.76 111.106C122.557 109.401 129.061 108.443 135.935 108.443C149.053 108.443 160.828 111.922 168.894 117.442C172.371 110.408 174.303 102.825 174.341 95.2969C174.338 94.9706 174.331 94.6511 174.324 94.3317Z" fill="#705AD7"/>
<path d="M122.599 93.7657C110.817 102.87 110.322 116.418 113.896 122.838C117.47 129.258 137.736 132.268 150.452 123.116C163.079 114.029 162.137 99.6301 152.821 91.7727C145.472 85.5818 132.545 86.0783 122.599 93.7657Z" fill="#523259"/>
<path d="M123.419 95.4845C113.328 103.283 112.902 114.887 115.963 120.387C119.025 125.887 136.385 128.463 147.277 120.623C158.092 112.838 157.285 100.505 149.306 93.7762C143.014 88.4743 131.942 88.9013 123.419 95.4845Z" fill="#B5C9C0"/>
<path d="M154.729 102.016C153.704 100.644 152.444 99.3768 150.958 98.2588C143.862 92.9256 131.447 93.2728 121.934 99.7796C119.25 101.616 117.186 103.675 115.641 105.814C113.535 111.443 114.103 117.043 115.963 120.39C119.024 125.89 136.385 128.466 147.277 120.626C154.483 115.442 156.523 108.238 154.729 102.016Z" fill="#DFEEE8"/>
<path d="M149.04 110.665C148.496 103.304 140.049 98.9462 130.169 100.929C122.782 102.415 116.69 107.026 114.315 112.335C114.19 115.515 114.834 118.366 115.96 120.39C118.509 124.973 130.993 127.525 141.386 123.713C146.311 120.338 149.393 115.456 149.04 110.665Z" fill="#F1F2F2"/>
<path d="M85.117 93.7657C96.8986 102.87 97.3938 116.418 93.8199 122.838C90.2459 129.258 69.9797 132.268 57.2631 123.116C44.6365 114.029 45.5785 99.6301 54.8943 91.7727C62.2396 85.5818 75.1674 86.0783 85.117 93.7657Z" fill="#523259"/>
<path d="M84.2962 95.4845C94.3878 103.283 94.8138 114.887 91.7523 120.387C88.6909 125.887 71.3303 128.463 60.4387 120.623C49.6234 112.838 50.4303 100.505 58.4093 93.7762C64.6984 88.4743 75.7735 88.9013 84.2962 95.4845Z" fill="#B5C9C0"/>
<path d="M52.9861 102.016C54.0112 100.644 55.2717 99.3768 56.7574 98.2588C63.8534 92.9256 76.2687 93.2728 85.7819 99.7796C88.4658 101.616 90.5299 103.675 92.0744 105.814C94.18 111.443 93.6121 117.043 91.7524 120.39C88.6909 125.89 71.3303 128.466 60.4387 120.626C53.232 115.442 51.1887 108.238 52.9861 102.016Z" fill="#DFEEE8"/>
<path d="M58.6726 110.665C59.2163 103.304 67.6629 98.9462 77.5432 100.929C84.93 102.415 91.0217 107.026 93.3974 112.335C93.5221 115.515 92.8779 118.366 91.7524 120.39C89.2035 124.973 76.719 127.525 66.3261 123.713C61.405 120.338 58.3193 115.456 58.6726 110.665Z" fill="#F1F2F2"/>
<path d="M104.029 88.9813C121.13 88.9813 134.993 82.9699 134.993 75.5545C134.993 68.1391 121.13 62.1277 104.029 62.1277C86.9283 62.1277 73.0653 68.1391 73.0653 75.5545C73.0653 82.9699 86.9283 88.9813 104.029 88.9813Z" fill="#9B7FFF"/>
<path d="M116.427 131.9C112.749 132.939 108.441 133.539 103.835 133.539C99.2293 133.539 94.9212 132.942 91.2433 131.9C87.1776 137.702 83.4547 144.369 80.1578 149.351C80.1578 149.351 85.072 158.442 103.794 158.442C122.515 158.442 127.509 149.351 127.509 149.351C124.219 144.369 120.493 137.702 116.427 131.9Z" fill="#C8E7C2"/>
<path d="M113.082 86.4151C113.082 86.4151 113.078 86.3665 113.113 86.2311C113.144 86.1131 113.189 85.9394 113.248 85.7103C113.373 85.2797 113.598 84.6721 113.975 83.9603C114.353 83.2555 114.89 82.4569 115.613 81.6409C116.337 80.8284 117.262 80.0194 118.363 79.2833C118.921 78.9292 119.513 78.5715 120.157 78.2729C120.791 77.9431 121.473 77.6792 122.172 77.391C123.585 76.8806 125.123 76.4501 126.73 76.214C127.132 76.1341 127.54 76.1167 127.949 76.0681C128.358 76.0334 128.77 75.9848 129.185 75.9744C130.013 75.957 130.851 75.9258 131.689 75.9848C132.108 76.0091 132.527 76.0265 132.946 76.0577C133.362 76.1029 133.777 76.148 134.196 76.1931C135.035 76.266 135.852 76.4327 136.676 76.5542C137.088 76.6098 137.493 76.7035 137.899 76.7869C138.3 76.8737 138.705 76.957 139.107 77.0438C139.907 77.2278 140.686 77.4535 141.466 77.6549C142.238 77.8771 142.986 78.1341 143.734 78.3667C144.108 78.4778 144.465 78.6306 144.825 78.766C145.182 78.9049 145.538 79.0403 145.888 79.1792C146.598 79.4396 147.263 79.759 147.924 80.0437C148.586 80.3285 149.223 80.6271 149.829 80.9465C150.435 81.2555 151.024 81.5576 151.595 81.8527C152.156 82.1618 152.683 82.4812 153.195 82.7763C154.227 83.3527 155.128 83.9499 155.924 84.4777C156.322 84.7416 156.696 84.9811 157.039 85.2138C157.372 85.4568 157.68 85.679 157.957 85.8804C158.511 86.2797 158.937 86.6061 159.231 86.8248C159.522 87.0436 159.678 87.1616 159.678 87.1616C160.142 87.5089 160.236 88.1651 159.889 88.6304C159.605 89.0123 159.114 89.1442 158.691 88.988L158.65 88.9741C158.65 88.9741 158.47 88.9081 158.137 88.7831C157.805 88.6581 157.316 88.4741 156.693 88.2415C156.385 88.1234 156.042 87.9915 155.671 87.8491C155.297 87.7172 154.892 87.5748 154.459 87.4221C153.593 87.1235 152.631 86.7589 151.561 86.436C151.031 86.2658 150.477 86.0922 149.905 85.9082C149.33 85.7485 148.735 85.5818 148.125 85.4082C147.82 85.3249 147.516 85.2277 147.201 85.1547C146.885 85.0784 146.57 85.0054 146.248 84.9291C145.607 84.7798 144.96 84.5957 144.288 84.4811C143.62 84.3561 142.944 84.2068 142.262 84.0992C141.576 83.9985 140.887 83.8735 140.195 83.7867C139.499 83.7207 138.799 83.6305 138.099 83.5819L137.05 83.5298C136.7 83.5124 136.351 83.4881 136.004 83.4951C135.308 83.5055 134.616 83.4881 133.933 83.5471C133.594 83.568 133.254 83.5888 132.915 83.6131C132.579 83.6478 132.247 83.693 131.914 83.7277C131.249 83.7867 130.609 83.9117 129.971 83.9985C129.653 84.0332 129.345 84.1166 129.033 84.1652C128.725 84.2207 128.413 84.2624 128.115 84.3318C126.907 84.5645 125.767 84.8388 124.68 85.1027C124.413 85.1756 124.146 85.252 123.887 85.3214C123.62 85.3839 123.367 85.4638 123.118 85.5436C122.612 85.6929 122.134 85.8526 121.656 85.9846C120.718 86.2728 119.824 86.5193 119.004 86.7346C118.19 86.9568 117.438 87.1443 116.798 87.3005C116.16 87.4602 115.631 87.5783 115.257 87.6582C115.073 87.6929 114.921 87.7276 114.838 87.7345C114.748 87.738 114.682 87.7658 114.685 87.7623C114.086 87.9915 113.414 87.6894 113.186 87.0853C113.141 86.9672 113.116 86.8422 113.109 86.7207L113.082 86.4151Z" fill="#523259"/>
<path d="M131.156 120.592C136.659 120.592 141.119 116.119 141.119 110.602C141.119 105.085 136.659 100.613 131.156 100.613C125.653 100.613 121.192 105.085 121.192 110.602C121.192 116.119 125.653 120.592 131.156 120.592Z" fill="#AB281B"/>
<path d="M131.156 120.588C134.268 120.588 136.79 118.87 136.79 116.752C136.79 114.633 134.268 112.915 131.156 112.915C128.044 112.915 125.521 114.633 125.521 116.752C125.521 118.87 128.044 120.588 131.156 120.588Z" fill="#F2A358"/>
<path d="M131.156 117.359C134.878 117.359 137.895 114.334 137.895 110.602C137.895 106.871 134.878 103.845 131.156 103.845C127.434 103.845 124.417 106.871 124.417 110.602C124.417 114.334 127.434 117.359 131.156 117.359Z" fill="#6E0500"/>
<path d="M136.347 108.016C137.706 106.653 138.214 104.953 137.481 104.218C136.748 103.483 135.052 103.992 133.693 105.355C132.334 106.718 131.826 108.418 132.559 109.153C133.292 109.888 134.988 109.379 136.347 108.016Z" fill="#F1F2F2"/>
<path d="M93.0442 87.7589C93.0476 87.7624 92.9818 87.7346 92.8918 87.7311C92.8087 87.7242 92.6563 87.6895 92.4727 87.6547C92.0987 87.5749 91.5654 87.4568 90.9282 87.2971C90.2875 87.1409 89.536 86.9534 88.7222 86.7311C87.8979 86.5159 87.0079 86.2694 86.0694 85.9812C85.5915 85.8527 85.1136 85.6895 84.608 85.5402C84.3586 85.4603 84.1058 85.3805 83.8391 85.318C83.5794 85.2451 83.3128 85.1722 83.0461 85.0992C81.9621 84.8354 80.8193 84.5611 79.6107 84.3284C79.3128 84.259 79.0012 84.2173 78.6929 84.1618C78.3813 84.1132 78.0765 84.0298 77.7544 83.9951C77.1172 83.9083 76.4765 83.7833 75.8116 83.7243C75.4792 83.6861 75.1467 83.6409 74.8108 83.6097C74.4714 83.5889 74.132 83.568 73.7926 83.5437C73.1104 83.4812 72.4177 83.4986 71.7217 83.4916C71.3753 83.4812 71.0256 83.5055 70.6758 83.5264L69.6265 83.5784C68.9269 83.6271 68.2274 83.7173 67.5313 83.7833C66.8352 83.8701 66.146 83.9951 65.4638 84.0958C64.7781 84.2034 64.1062 84.3527 63.4378 84.4777C62.766 84.5923 62.1184 84.7729 61.4777 84.9256C61.1556 85.002 60.837 85.0784 60.5254 85.1513C60.2102 85.2242 59.9055 85.3215 59.6007 85.4048C58.9912 85.5749 58.3955 85.7416 57.8207 85.9048C57.2492 86.0853 56.6951 86.2624 56.1653 86.4325C55.0917 86.752 54.1324 87.12 53.2666 87.4186C52.8337 87.5714 52.4286 87.7138 52.0545 87.8457C51.684 87.9881 51.3411 88.12 51.0329 88.2381C50.413 88.4707 49.9247 88.6547 49.5888 88.7797C49.2529 88.9047 49.0762 88.9707 49.0762 88.9707L49.0347 88.9846C48.491 89.186 47.8919 88.9082 47.691 88.3631C47.5282 87.9186 47.6841 87.4291 48.0477 87.1582C48.0477 87.1582 48.2035 87.0402 48.4944 86.8214C48.7853 86.6027 49.2148 86.2798 49.7689 85.877C50.0459 85.6756 50.3507 85.4534 50.6866 85.2104C51.026 84.9777 51.4035 84.7381 51.8017 84.4743C52.5983 83.95 53.4987 83.3528 54.5307 82.7729C55.0432 82.4778 55.5731 82.1583 56.1306 81.8493C56.7021 81.5576 57.2908 81.2556 57.8968 80.9431C58.4994 80.6236 59.1366 80.325 59.8016 80.0403C60.463 79.7521 61.1279 79.4327 61.8379 79.1758C62.1911 79.0403 62.5444 78.9015 62.9011 78.7626C63.2612 78.6272 63.6179 78.4744 63.992 78.3633C64.7365 78.1306 65.488 77.8737 66.2603 77.6515C67.0395 77.4501 67.8187 77.2244 68.6187 77.0404C69.0204 76.9536 69.4256 76.8702 69.8273 76.7834C70.2325 76.7001 70.6342 76.6064 71.0498 76.5508C71.874 76.4293 72.6913 76.2591 73.5294 76.1897C73.9485 76.1446 74.364 76.0994 74.7796 76.0543C75.1986 76.023 75.6177 76.0057 76.0367 75.9814C76.8713 75.9224 77.7094 75.9536 78.5406 75.971C78.9527 75.9814 79.3683 76.03 79.7769 76.0647C80.1856 76.1133 80.5942 76.1307 80.9959 76.2105C82.6063 76.4432 84.1404 76.8737 85.5534 77.3876C86.253 77.6758 86.9352 77.9397 87.5689 78.2695C88.2131 78.5681 88.8053 78.9258 89.3629 79.2799C90.4676 80.016 91.3888 80.825 92.1126 81.6375C92.8364 82.4535 93.3731 83.2555 93.7506 83.9569C94.1281 84.6652 94.3498 85.2728 94.4779 85.7069C94.5368 85.936 94.5818 86.1096 94.613 86.2277C94.6441 86.3596 94.6441 86.4117 94.6441 86.4117L94.6337 86.7103C94.6095 87.3527 94.0692 87.8561 93.4251 87.8318C93.2866 87.8284 93.1584 87.8006 93.0442 87.7589Z" fill="#523259"/>
<path d="M76.5596 120.592C82.0623 120.592 86.523 116.119 86.523 110.602C86.523 105.085 82.0623 100.613 76.5596 100.613C71.057 100.613 66.5962 105.085 66.5962 110.602C66.5962 116.119 71.057 120.592 76.5596 120.592Z" fill="#AB281B"/>
<path d="M76.5597 120.588C79.6715 120.588 82.1942 118.87 82.1942 116.752C82.1942 114.633 79.6715 112.915 76.5597 112.915C73.4478 112.915 70.9252 114.633 70.9252 116.752C70.9252 118.87 73.4478 120.588 76.5597 120.588Z" fill="#F2A358"/>
<path d="M76.5596 117.359C80.2816 117.359 83.2989 114.334 83.2989 110.602C83.2989 106.871 80.2816 103.845 76.5596 103.845C72.8376 103.845 69.8204 106.871 69.8204 110.602C69.8204 114.334 72.8376 117.359 76.5596 117.359Z" fill="#6E0500"/>
<path d="M75.1552 109.151C75.8882 108.416 75.3806 106.716 74.0214 105.353C72.6623 103.99 70.9662 103.481 70.2332 104.216C69.5002 104.951 70.0078 106.652 71.367 108.015C72.7262 109.377 74.4222 109.886 75.1552 109.151Z" fill="#F1F2F2"/>
<path d="M84.5734 133.685C84.5734 133.685 84.6045 133.713 84.6669 133.765C84.7292 133.813 84.8192 133.886 84.937 133.984C85.1794 134.178 85.55 134.452 86.0244 134.8C86.9768 135.484 88.3724 136.421 90.1386 137.376C91.0182 137.859 91.9948 138.327 93.0372 138.789C93.5636 139.011 94.1039 139.24 94.6684 139.438C95.2259 139.654 95.8078 139.838 96.3965 140.032C97.5809 140.383 98.8207 140.699 100.099 140.9C100.732 141.029 101.38 141.081 102.028 141.157C102.35 141.202 102.679 141.195 103.004 141.22C103.33 141.23 103.655 141.265 103.984 141.258C104.635 141.244 105.293 141.275 105.941 141.206C106.266 141.181 106.588 141.157 106.911 141.133C107.233 141.098 107.551 141.043 107.87 140.997C108.188 140.945 108.507 140.918 108.819 140.848C109.13 140.782 109.442 140.716 109.75 140.654C110.374 140.546 110.966 140.341 111.562 140.181C112.161 140.036 112.715 139.782 113.279 139.598C113.847 139.418 114.37 139.157 114.893 138.935C115.153 138.82 115.409 138.706 115.662 138.595C115.908 138.466 116.15 138.341 116.386 138.216C116.625 138.095 116.86 137.973 117.089 137.852C117.321 137.734 117.549 137.619 117.757 137.484C118.606 136.956 119.416 136.515 120.077 136.029C120.749 135.56 121.355 135.178 121.812 134.803C122.758 134.088 123.295 133.678 123.295 133.678L123.322 133.657C123.627 133.425 124.063 133.487 124.292 133.793C124.507 134.074 124.469 134.47 124.223 134.709C124.223 134.709 123.721 135.195 122.827 136.039C122.391 136.473 121.805 136.938 121.137 137.48C120.486 138.043 119.676 138.584 118.806 139.192C118.592 139.348 118.36 139.487 118.121 139.629C117.882 139.772 117.639 139.918 117.393 140.063C117.144 140.209 116.895 140.359 116.638 140.508C116.372 140.64 116.102 140.775 115.828 140.911C115.277 141.178 114.723 141.48 114.117 141.709C113.518 141.945 112.916 142.223 112.265 142.407C111.62 142.605 110.976 142.841 110.294 142.98C109.955 143.06 109.615 143.143 109.276 143.223C108.933 143.306 108.58 143.341 108.233 143.4C107.884 143.452 107.53 143.515 107.177 143.556C106.821 143.588 106.464 143.615 106.107 143.647C105.394 143.73 104.67 143.702 103.95 143.723C103.589 143.733 103.229 143.692 102.869 143.674C102.509 143.647 102.149 143.647 101.796 143.595C101.086 143.504 100.372 143.438 99.6795 143.296C98.2804 143.07 96.9471 142.667 95.6762 142.258C94.4086 141.824 93.2173 141.32 92.123 140.782C91.0252 140.244 90.0209 139.681 89.1274 139.109C88.2235 138.553 87.4374 137.98 86.7482 137.463C86.0625 136.942 85.4876 136.459 85.027 136.05C84.563 135.64 84.2167 135.3 83.9777 135.06C83.8565 134.938 83.7664 134.845 83.7041 134.782C83.6452 134.72 83.6141 134.688 83.6141 134.688C83.3509 134.407 83.3647 133.97 83.6452 133.706C83.905 133.463 84.2998 133.456 84.5664 133.678L84.5734 133.685Z" fill="#523259"/>
<path d="M127.118 135.119C126.934 134.043 126.429 133.015 125.601 132.185C124.773 131.356 123.745 130.849 122.675 130.665L120.399 137.401L127.118 135.119Z" fill="#523259"/>
<path d="M80.7327 135.119C80.9162 134.043 81.4218 133.015 82.2495 132.185C83.0772 131.356 84.1058 130.849 85.1759 130.665L87.4511 137.401L80.7327 135.119Z" fill="#523259"/>
<path d="M118.654 131.529C118.654 129.029 112.029 121.755 103.856 121.755C95.683 121.755 89.058 129.029 89.058 131.529C89.058 134.029 95.683 136.053 103.856 136.053C112.029 136.056 118.654 134.029 118.654 131.529Z" fill="#856DEC"/>
<path d="M93.9176 133.899C94.6413 133.668 94.844 132.27 94.3702 130.775C93.8965 129.28 92.9257 128.254 92.202 128.485C91.4783 128.715 91.2757 130.114 91.7494 131.609C92.2232 133.104 93.1939 134.129 93.9176 133.899Z" fill="#523259"/>
<path d="M115.768 131.614C116.242 130.119 116.04 128.72 115.316 128.489C114.592 128.259 113.621 129.284 113.148 130.779C112.674 132.274 112.877 133.673 113.6 133.903C114.324 134.134 115.295 133.109 115.768 131.614Z" fill="#523259"/>
<path d="M104.067 127.591C108.807 127.591 112.649 126.043 112.649 124.133C112.649 122.223 108.807 120.675 104.067 120.675C99.3277 120.675 95.4856 122.223 95.4856 124.133C95.4856 126.043 99.3277 127.591 104.067 127.591Z" fill="#9B7FFF"/>
<path d="M113.134 48.7356C112.258 48.1627 109.262 49.5724 106.439 51.8848C106.135 52.1348 105.844 52.3848 105.57 52.6348C105.736 52.0445 105.878 51.4022 105.986 50.7251C106.491 47.4995 106.017 44.7148 104.923 44.5065C103.828 44.2982 102.53 46.746 102.024 49.9717C101.91 50.7043 101.847 51.4091 101.827 52.0689C101.761 51.8918 101.695 51.7112 101.622 51.5307C100.306 48.2113 98.3842 45.6072 97.328 45.7079C96.2717 45.8086 96.483 48.5828 97.7955 51.8987C98.4847 53.6348 99.3366 55.1764 100.147 56.2354C101.02 56.2181 101.889 56.1903 102.758 56.1556C102.758 56.1174 102.751 56.0722 102.751 56.034C102.765 56.0445 102.782 56.0549 102.796 56.0653C102.786 56.0965 102.772 56.1278 102.762 56.1556C102.821 56.1521 102.883 56.1486 102.945 56.1486C103.15 56.1417 103.35 56.1313 103.555 56.1243C104.594 56.0827 105.633 56.0375 106.675 56.0063C107.61 55.4646 108.621 54.7667 109.612 53.9542C112.434 51.6452 114.01 49.3085 113.134 48.7356Z" fill="#705AD7"/>
<path d="M182.06 163.184C178.154 159.855 165.465 156.251 157.237 169.757C150.252 181.222 152.589 197.718 162.026 201.145C171.463 204.572 180.668 199.055 184.571 188.493C188.755 177.17 187.639 167.938 182.06 163.184Z" fill="#523259"/>
<path d="M178.764 165.789L176.412 163.507C176.412 163.507 181.108 163.976 183.546 167.143C185.984 170.309 182.899 177.24 182.899 177.24L177.084 178.66L178.764 165.789Z" fill="#643C64"/>
<path d="M184.571 188.493C187.272 181.184 187.761 174.747 186.272 169.823C185.482 168.719 184.554 167.681 183.546 167.139L178.767 176.146V165.785C175.283 165.761 171.231 167.795 167.661 174.202C163.973 180.82 162.251 192.101 164.901 201.913C173.285 203.389 181.063 197.979 184.571 188.493Z" fill="#431F59"/>
<path d="M25.6551 163.184C29.5615 159.855 42.2504 156.251 50.4788 169.757C57.464 181.222 55.1264 197.718 45.6893 201.145C36.2523 204.572 27.0473 199.055 23.1443 188.493C18.9574 177.17 20.076 167.938 25.6551 163.184Z" fill="#523259"/>
<path d="M28.9485 165.789L31.2999 163.507C31.2999 163.507 26.6039 163.976 24.1659 167.143C21.7279 170.309 24.8135 177.24 24.8135 177.24L30.6281 178.66L28.9485 165.789Z" fill="#643C64"/>
<path d="M23.1443 188.493C20.443 181.184 19.9547 174.747 21.4439 169.823C22.2335 168.719 23.1616 167.681 24.1694 167.139L28.9485 176.146V165.785C32.4324 165.761 36.4843 167.795 40.0548 174.202C43.743 180.82 45.4642 192.101 42.8149 201.913C34.4306 203.389 26.649 197.979 23.1443 188.493Z" fill="#431F59"/>
</svg>
