<?xml version="1.0" encoding="utf-8"?>
<!-- Generator: Adobe Illustrator 26.0.1, SVG Export Plug-In . SVG Version: 6.00 Build 0)  -->
<svg version="1.1" id="layer" xmlns="http://www.w3.org/2000/svg" xmlns:xlink="http://www.w3.org/1999/xlink" x="0px" y="0px"
	 viewBox="0 0 1000 1000" style="enable-background:new 0 0 1000 1000;" xml:space="preserve">
<style type="text/css">
	.st999{fill:#FF722C;}
	.st1{fill:#FFB769;}
	.st2{fill:#720062;}
</style>
<path id="skin-D" d="M594.4,714.7c-16.3-1.7-25.9-19.1-18.8-33.8c8.5-17.8,13.4-23.8,13.4-37.2c0-38-39.8-68.7-89-68.7
	s-89,30.8-89,68.7c0,13.3,4.9,19.4,13.4,37.2c7.1,14.7-2.6,32.1-18.8,33.8c-81.5,8.7-128.3,38.2-128.3,46
	c0,10.5,94.2,21.9,222.7,21.9s222.7-11.4,222.7-21.9C722.7,752.9,675.9,723.3,594.4,714.7z"/> 
<path id="skin2-D" fill="#EDD8B7" d="M500.04,554.86c-59.45,5.09-91.92,44.79-73.31,93c11.31,29.3,39.06,55.45,73.31,72.6
	c34.25-17.16,62-43.31,73.31-72.6C591.96,599.64,559.48,559.95,500.04,554.86z"/>
<path id="blacks_2_" fill="#6C1E4D" d="M646.29,282.76c29.09,31.62,45.28,81.73,40.34,138.16c-4.94,56.42-29.92,106.54-64.54,138.16
	c-38.13-31.62-60.17-81.73-55.23-138.16C571.81,364.5,602.62,314.39,646.29,282.76z"/>
<path id="earskin_3_" fill="#EBB4D5" d="M649.09,299.29c21.35,26.8,33.35,69.27,29.94,117.08s-21.48,90.28-46.65,117.08
	c-27.95-26.8-44.22-69.26-40.81-117.08S617.31,326.08,649.09,299.29z"/>
<path id="blacks_1_" fill="#6C1E4D" d="M353.7,282.76c-29.09,31.62-45.28,81.73-40.34,138.16c4.94,56.42,29.92,106.54,64.54,138.16
	c38.13-31.62,60.17-81.73,55.23-138.16C428.19,364.5,397.38,314.39,353.7,282.76z"/>
<path id="earskin_2_" fill="#EBB4D5" d="M350.91,299.29c-21.35,26.8-33.35,69.27-29.94,117.08s21.48,90.28,46.65,117.08
	c27.95-26.8,44.22-69.26,40.81-117.08S382.69,326.08,350.91,299.29z"/>

<g id="headLayer_1_2_">
	<g id="headLayer_1_1_">
		<path id="skin-D" fill="#705AD7" d="M500.1,360.6L500.1,360.6H500l0,0c-112.4,0-203.8,40.6-203.5,118.2
			c0.3,69.3,56.7,140.3,135.7,155.8c9.6,15,36.3,25.9,67.7,25.9l0,0h0.1l0,0c31.4,0,58.1-10.9,67.7-25.9
			c79.1-15.4,135.4-86.5,135.7-155.8C703.9,401.2,612.4,360.7,500.1,360.6z"/>
		<g id="skin">
			<path fill="#856DEC" d="M408.6,436.9c36.2,0,68.9,9.1,92,23.8c23.1-14.7,55.8-23.8,92-23.8c34.38,0,65.57,8.25,88.46,21.64
				c-15.52-58.05-90.82-88.34-180.96-88.34H500c-90.67,0-166.28,30.5-181.22,89.16C341.78,445.47,373.54,436.9,408.6,436.9z"/>
			<path fill="#856DEC" d="M592.7,516.7c-19.9,0-38.7,2.8-55.4,7.7c-7.2-19.9-21-33.3-36.8-33.3s-29.5,13.4-36.8,33.3
				c-16.7-4.9-35.4-7.6-55.1-7.6c-31.05,0-59.48,6.67-81.54,17.84c18.68,45.28,59.76,83.65,111.74,94.26
				c8.7,14.2,32.8,24.4,61.2,24.4h0.1c28.4,0,52.5-10.2,61.2-24.4c52.19-10.66,93.4-49.29,111.97-94.81
				C651.34,523.22,623.29,516.7,592.7,516.7z"/>
		</g>
		<ellipse id="skin-L" fill="#9B7FFF" cx="500.5" cy="422" rx="89.4" ry="38.7"/>
		<path id="skin2-L" fill="#C8E7C2" d="M536.3,584.2c-10.6,3-23.1,4.7-36.4,4.7c-13.3,0-25.7-1.7-36.4-4.7
			c-11.7,16.7-22.5,35.9-32,50.3c0,0,14.2,26.2,68.3,26.2s68.5-26.2,68.5-26.2C558.8,620.2,548,601,536.3,584.2z"/>
	</g>
</g>
<g id="head_x3C_Clip_Group_x3E_">
	<defs>
		<path id="head_x3C_Path_x3E_" d="M500.1,360.6L500.1,360.6H500l0,0c-112.4,0-203.8,40.6-203.5,118.2
			c0.3,69.3,56.7,140.3,135.7,155.8c9.6,15,36.3,25.9,67.7,25.9l0,0h0.1l0,0c31.4,0,58.1-10.9,67.7-25.9
			c79.1-15.4,135.4-86.5,135.7-155.8C703.9,401.2,612.4,360.7,500.1,360.6z"/>
	</defs>
	<clipPath id="head_x3C_Path_x3E__1_">
		<use xlink:href="#head_x3C_Path_x3E_"  overflow="visible"/>
	</clipPath>
	<circle id="head-mask" clip-path="url(#head_x3C_Path_x3E__1_)" fill="#705AD7" cx="5" cy="5" r="5"/>
</g>
<g id="eyes_1_">
	<g id="blacks">
		<path id="path_7_" fill="#6C1E4D" d="M565.36,473.61c-30.39,17.6-43.42,57.75-33.82,93.13c38.91,12.56,76.16,8.91,104.48-13.29
			c28.32-22.2,26.56-58.43,16.59-81.69C627.89,459.56,591.01,458.76,565.36,473.61z"/>
		<path id="path_6_" fill="#6C1E4D" d="M434.63,473.61c30.39,17.6,43.42,57.75,33.82,93.13c-38.91,12.56-76.16,8.91-104.48-13.29
			c-28.32-22.2-26.56-58.43-16.59-81.69C372.11,459.56,408.99,458.76,434.63,473.61z"/>
	</g>
	<g id="eye-D_2_">
		<path id="path_5_" fill="#B5C9C0" d="M568.47,484.34c-28.02,15.31-41.13,45.59-32.28,76.37c35.87,10.93,73.47,4.11,95.33-16.43
			c18.49-17.38,21.37-40.91,12.17-61.14C620.9,472.53,592.12,471.43,568.47,484.34z"/>
		<path id="path_4_" fill="#B5C9C0" d="M431.52,484.34c28.02,15.31,41.13,45.59,32.28,76.37c-35.87,10.93-73.47,4.11-95.33-16.43
			c-18.49-17.38-21.37-40.91-12.17-61.14C379.1,472.53,407.88,471.43,431.52,484.34z"/>
	</g>
	<g id="eye_2_">
		<path id="path_3_" fill="#DFEEE8" d="M646.17,489.57c-23.47-7.62-51.34-7.42-74.63,3.79c-22.96,11.06-36.71,30.27-37.98,51.69
			c0.27,5.16,1.12,10.4,2.63,15.66c35.87,10.93,73.47,4.11,95.33-16.43C648.08,528.72,652.12,508.22,646.17,489.57z"/>
		<path id="path_2_" fill="#DFEEE8" d="M353.83,489.57c23.47-7.62,51.34-7.42,74.63,3.79c22.96,11.06,36.71,30.27,37.98,51.69
			c-0.27,5.16-1.12,10.4-2.63,15.66c-35.87,10.93-73.47,4.11-95.33-16.43C351.92,528.72,347.88,508.22,353.83,489.57z"/>
	</g>
	<g id="eye-L_2_">
		<path id="path_1_" fill="#F1F2F2" d="M584.09,502.57c-18.67,0-35.27,9.14-45.81,23.29c-2.72,6.06-4.32,12.52-4.72,19.19
			c0.27,5.16,1.12,10.4,2.63,15.66c35.87,10.93,73.47,4.11,95.33-16.43c2.03-1.9,3.86-3.88,5.51-5.92
			C628.18,517.31,607.81,502.57,584.09,502.57z"/>
		<path id="path" fill="#F1F2F2" d="M415.91,502.57c18.67,0,35.27,9.14,45.81,23.29c2.72,6.06,4.32,12.52,4.72,19.19
			c-0.27,5.16-1.12,10.4-2.63,15.66c-35.87,10.93-73.47,4.11-95.33-16.43c-2.03-1.9-3.86-3.88-5.51-5.92
			C371.82,517.31,392.19,502.57,415.91,502.57z"/>
	</g>
</g>
<g id="r_x3C_Clip_Group_x3E_">
	<defs>
		<path id="rpath" d="M568.47,484.34c-28.02,15.31-41.13,45.59-32.28,76.37c35.87,10.93,73.47,4.11,95.33-16.43
			c18.49-17.38,21.37-40.91,12.17-61.14C620.9,472.53,592.12,471.43,568.47,484.34z"/>
	</defs>
	<clipPath id="rpath_1_">
		<use xlink:href="#rpath"  overflow="visible"/>
	</clipPath>
	<circle id="eyes-mask-r" clip-path="url(#rpath_1_)" fill="#5D5D5D" cx="995" cy="3" r="5"/>
</g>
<g id="l_x3C_Clip_Group_x3E_">
	<defs>
		<path id="lpath" d="M431.52,484.34c28.02,15.31,41.13,45.59,32.28,76.37c-35.87,10.93-73.47,4.11-95.33-16.43
			c-18.49-17.38-21.37-40.91-12.17-61.14C379.1,472.53,407.88,471.43,431.52,484.34z"/>
	</defs>
	<clipPath id="lpath_1_">
		<use xlink:href="#lpath"  overflow="visible"/>
	</clipPath>
	<circle id="eyes-mask-l" clip-path="url(#lpath_1_)" fill="#5D5D5D" cx="5" cy="3" r="5"/>
</g>
	
<g id="filler-eyes-l">
<g>
    <g id="pupil">
	<circle cx="421.4" cy="528.9" r="36.7"/>
	<circle cx="578.7" cy="528.9" r="36.7"/>
        </g>
</g>
<g id="pupil-L">
	<path class="st999" d="M431.9,538.7c-2.6,2.8-6.4,4.6-10.5,4.6c-4.2,0-8-1.8-10.6-4.7c-7.2,2.4-12.1,7.2-12.1,12.7
		c0,7.9,10.1,14.3,22.6,14.3s22.6-6.4,22.6-14.3C443.9,545.8,439.1,541.1,431.9,538.7z"/>
	<path class="st999" d="M589.2,538.7c-2.6,2.8-6.4,4.6-10.5,4.6c-4.2,0-8-1.8-10.6-4.7c-7.2,2.4-12.1,7.2-12.1,12.7
		c0,7.9,10.1,14.3,22.6,14.3s22.6-6.4,22.6-14.3C601.2,545.8,596.4,541.1,589.2,538.7z"/>
</g>
<g id="pupil-D">
	<path class="st999" d="M384.6,528.4c-0.3,7.2,3.8,13.2,9,13.2c3.2,0,13.7-8.4,15.6-8.4V525c-2.5,0-12.5-8.6-15.9-8.5
		C388.7,516.7,384.9,521.9,384.6,528.4z"/>
	<path class="st999" d="M541.9,528.4c-0.3,7.2,3.8,13.2,9,13.2c3.2,0,13.7-8.4,15.6-8.4V525c-2.5,0-12.5-8.6-15.9-8.5
		C546,516.7,542.2,521.9,541.9,528.4z"/>
	<path class="st999" d="M449.1,516.5c-3.2,0-13.7,8.4-15.6,8.4v8.2c2.5,0.1,12.5,8.7,15.9,8.5c4.6-0.2,8.4-5.4,8.7-11.9
		C458.4,522.5,454.3,516.5,449.1,516.5z"/>
	<path class="st999" d="M606.4,516.5c-3.2,0-13.7,8.4-15.6,8.4v8.2c2.5,0.1,12.5,8.7,15.9,8.5c4.6-0.2,8.4-5.4,8.7-11.9
		C615.7,522.5,611.6,516.5,606.4,516.5z"/>
	
		<ellipse transform="matrix(0.3827 -0.9239 0.9239 0.3827 -228.5643 715.7295)" cx="421.3" cy="528.9" rx="8.4" ry="8.4"/>
	<circle cx="578.6" cy="528.9" r="8.4"/>
</g>
<g id="whites">
	<path class="st999" d="M432.6,509.5c-4.4,4.4-6.1,10-3.7,12.4c2.4,2.4,7.9,0.7,12.4-3.7c4.4-4.5,6.1-10,3.7-12.4
		C442.6,503.4,437.1,505.1,432.6,509.5z"/>
	<path class="st999" d="M602.3,505.8c-2.4-2.4-7.9-0.7-12.4,3.7c-4.4,4.4-6.1,10-3.7,12.4c2.4,2.4,7.9,0.7,12.4-3.7
		C603,513.7,604.7,508.2,602.3,505.8z"/>
</g>
    </g>

<g id="skin-D">
	<path id="path_1_" fill="#EB6E40" d="M271.13,696.98c1.61-5.65,5.42-9.78,10.67-10.82c2.98-0.59,6.07-0.12,9.01,1.18
		c0.52-0.46,1.09-0.88,1.72-1.25c7.68-4.45,23.14,1.37,31.65,10.57c24.86,26.87,36.17,81.9,0.39,93.95
		c-26.24,8.84-39.15-13.81-53.98-46.11C258.31,717.78,257.2,706.7,271.13,696.98z"/>
	<path id="path" fill="#EB6E40" d="M728.87,696.98c-1.61-5.65-5.42-9.78-10.67-10.82c-2.98-0.59-6.07-0.12-9.01,1.18
		c-0.52-0.46-1.09-0.88-1.72-1.25c-7.68-4.45-23.14,1.37-31.65,10.57c-24.86,26.87-36.17,81.9-0.39,93.95
		c26.24,8.84,39.15-13.81,53.98-46.11C741.69,717.78,742.8,706.7,728.87,696.98z"/>
</g>
<g id="earskin">
	<g>
		<path fill="#EBB4D5" d="M687.71,744.91c-7.65,15.44-8.34,31.96-0.9,35.88c7.55,3.97,19.72-6.95,26.58-23.27
			c6.37-15.16,5.66-29.23-1.11-32.34C705.61,722.09,694.83,730.55,687.71,744.91z"/>
		<path fill="#EBB4D5" d="M724.68,718.94c-2.88,5.65-3.52,11.45-1.34,12.82c2.19,1.38,6.31-2.31,9.1-8.09
			c2.71-5.61,3.14-11.06,1.03-12.31C731.38,710.12,727.48,713.45,724.68,718.94z"/>
		<path fill="#EBB4D5" d="M698.92,708.37c-1.22,6.43-0.06,11.94,2.62,12.11s5.74-5.08,6.8-11.51c1.02-6.23-0.22-11.26-2.74-11.42
			C703.07,697.38,700.1,702.16,698.92,708.37z"/>
		<path fill="#EBB4D5" d="M711.86,707.63c-2.15,7.71-1.04,14.84,2.56,15.61c3.61,0.78,8.14-5.15,10.04-12.95
			c1.82-7.5,0.52-13.93-2.85-14.62C718.26,694.98,713.93,700.22,711.86,707.63z"/>
	</g>
	<g>
		<path fill="#EBB4D5" d="M312.29,744.91c7.65,15.44,8.34,31.96,0.9,35.88c-7.55,3.97-19.72-6.95-26.58-23.27
			c-6.37-15.16-5.66-29.23,1.11-32.34C294.39,722.09,305.17,730.55,312.29,744.91z"/>
		<path fill="#EBB4D5" d="M275.32,718.94c2.88,5.65,3.52,11.45,1.34,12.82c-2.19,1.38-6.31-2.31-9.1-8.09
			c-2.71-5.61-3.14-11.06-1.03-12.31C268.62,710.12,272.52,713.45,275.32,718.94z"/>
		<path fill="#EBB4D5" d="M301.08,708.37c1.22,6.43,0.06,11.94-2.62,12.11s-5.74-5.08-6.8-11.51c-1.02-6.23,0.22-11.26,2.74-11.42
			C296.93,697.38,299.9,702.16,301.08,708.37z"/>
		<path fill="#EBB4D5" d="M288.14,707.63c2.15,7.71,1.04,14.84-2.56,15.61c-3.61,0.78-8.14-5.15-10.04-12.95
			c-1.82-7.5-0.52-13.93,2.85-14.62C281.74,694.98,286.07,700.22,288.14,707.63z"/>
	</g>
</g>
<path id="kluv" class="st999" d="M636.5,572.5c-3.7-5-10.7-6-15.6-2.4c-2.9,2.1-7.6,7.6-10.3,12.9c-7.9,4.4-18.6,8.8-34.2,10.6
	c-38.5,4.5-46.7-25.7-77.9-25.9c-31.2,0.2-39.4,30.4-77.9,25.9c-15.6-1.8-26.3-6.2-34.2-10.6c-2.8-5.3-7.5-10.8-10.3-12.9
	c-5-3.7-12-2.6-15.6,2.4c-3.7,5-2.6,19.9,2.4,23.6c3,2.2,10.2,5.3,16.3,6.2c9.1,6,21.6,12.4,37,18.1c25.3,9.3,46.6,15,82.4,15
	s57.1-5.6,82.4-15c15.4-5.7,27.9-12.1,37-18.1c6.1-1,13.3-4,16.3-6.2C639.1,592.4,640.2,577.5,636.5,572.5z"/>
<path id="nekluv" class="st1" d="M556.8,601.7c0,2.1-26.1,9.8-58.3,9.8s-58.3-7.7-58.3-9.8s26.1,2.2,58.3,2.2
	S556.8,599.7,556.8,601.7z"/>
<g id="blacks">
	<path  d="M630.9,583.1c-2-2.9-6-3.6-8.8-1.6l-0.2,0.2c0,0-0.8,0.6-2.4,1.7c-1.6,1.1-3.9,2.7-6.9,4.7
		c-1.5,0.9-3.2,2-5.1,3.1c-1.9,1.1-3.9,2.4-6.1,3.6c-2.2,1.2-4.6,2.5-7,3.8c-2.5,1.3-5.2,2.5-8,3.9c-1.4,0.7-2.8,1.3-4.3,1.9
		c-1.5,0.6-3,1.3-4.5,1.9c-0.8,0.3-1.5,0.7-2.3,1s-1.6,0.6-2.4,0.9c-1.6,0.6-3.3,1.2-4.9,1.8c-1.7,0.6-3.4,1.1-5.1,1.7
		c-1.7,0.6-3.5,1.1-5.3,1.7c-1.8,0.5-3.6,1-5.5,1.5c-0.9,0.2-1.9,0.5-2.8,0.7l-1.4,0.4l-1.4,0.3c-3.8,0.8-7.6,1.7-11.6,2.3
		c-2,0.3-3.9,0.7-6,1c-2,0.2-4,0.5-6,0.7c-7.9,0.8-16,1.3-24.1,1.2c-8.1,0.1-16.2-0.4-24.1-1.2c-2-0.2-4-0.5-6-0.7c-2-0.3-4-0.7-6-1
		c-4-0.6-7.8-1.5-11.6-2.3l-1.4-0.3l-1.4-0.4c-0.9-0.2-1.9-0.5-2.8-0.7c-1.8-0.5-3.7-1-5.5-1.5c-1.8-0.6-3.5-1.1-5.3-1.7
		c-1.7-0.6-3.5-1.1-5.1-1.7c-1.7-0.6-3.3-1.2-4.9-1.8c-0.8-0.3-1.6-0.6-2.4-0.9c-0.8-0.3-1.6-0.7-2.3-1c-1.5-0.7-3.1-1.3-4.5-1.9
		c-1.5-0.6-2.9-1.2-4.3-1.9c-2.8-1.4-5.5-2.6-8-3.9c-2.5-1.3-4.8-2.6-7-3.8s-4.2-2.4-6.1-3.6c-1.9-1.1-3.6-2.2-5.1-3.1
		c-3-2-5.3-3.6-6.9-4.7c-1.6-1.1-2.4-1.7-2.4-1.7l-0.2-0.2c-2.9-2-6.8-1.3-8.8,1.6c-2,2.9-1.3,6.8,1.6,8.8c0.2,0.2,0.5,0.3,0.7,0.4
		c0,0,3.8,2,10.5,5.5c1.7,0.8,3.6,1.7,5.6,2.7c2.1,1,4.2,2.1,6.6,3.2c2.4,1.1,4.9,2.2,7.6,3.4c2.7,1.1,5.6,2.3,8.6,3.5
		c6,2.3,12.6,4.6,19.6,6.8c1.7,0.6,3.6,1,5.4,1.5s3.7,1,5.5,1.5c1.9,0.5,3.8,0.9,5.7,1.3c1,0.2,1.9,0.5,2.9,0.7l1.5,0.3l1.5,0.3
		c3.9,0.7,7.9,1.6,12,2.1c2,0.3,4.1,0.7,6.2,0.9s4.2,0.5,6.2,0.7c8.2,0.8,16.5,1.3,24.8,1.2c8.3,0.1,16.7-0.4,24.8-1.2
		c2.1-0.2,4.2-0.5,6.2-0.7c2.1-0.2,4.1-0.6,6.2-0.9c4.1-0.5,8.1-1.4,12-2.1l1.5-0.3l1.5-0.3c1-0.2,1.9-0.5,2.9-0.7
		c1.9-0.5,3.8-0.9,5.7-1.3c1.9-0.5,3.7-1,5.5-1.5s3.6-1,5.4-1.5c7-2.2,13.6-4.5,19.6-6.8c3-1.2,5.8-2.4,8.6-3.5
		c2.7-1.2,5.2-2.3,7.6-3.4c2.4-1,4.6-2.2,6.6-3.2s3.9-1.9,5.6-2.7c6.6-3.5,10.5-5.5,10.5-5.5c0.2-0.1,0.5-0.3,0.7-0.4
		C632.2,589.9,632.9,585.9,630.9,583.1z"/>
	
		<ellipse transform="matrix(0.7479 -0.6639 0.6639 0.7479 -256.1901 493.0768)" class="st2" cx="521" cy="583.8" rx="3.3" ry="6.1"/>
	<ellipse transform="matrix(0.6639 -0.7479 0.7479 0.6639 -276.581 552.2104)" class="st2" cx="476" cy="583.8" rx="6.1" ry="3.3"/>
</g>

	<g id="skin-L">
	<g id="frontpaws_Group_">
		<path id="frontpaws_Path_" fill="#9B7FFF" d="M589.6,614.6c-28.2,2.7-19,45.4-30.5,79.3c-9.6,28.3-47.7,63.6-47.2,86
			c0.4,0.7,0.9,1.4,1.4,2.1c5-2.94,10.25-5.42,15.7-7.4c-3.7,7.8-6.3,14.6-7.5,17.6c0.8,0.9,1.6,1.8,2.5,2.7
			c28.8,6.5,100.1-48.1,108.4-80.5C641.4,679,617.8,611.8,589.6,614.6z"/>
	</g>
	<g id="frontpaws_Group_2">
		<path id="frontpaws_Path_2" fill="#9B7FFF" d="M410.4,614.6c28.2,2.7,19,45.4,30.5,79.3c9.6,28.3,47.7,63.6,47.2,86
			c-0.4,0.7-0.9,1.4-1.4,2.1c-5-2.94-10.25-5.42-15.7-7.4c3.7,7.8,6.3,14.6,7.5,17.6c-0.8,0.9-1.6,1.8-2.5,2.7
			c-28.8,6.5-100.1-48.1-108.4-80.5C358.6,679,382.2,611.8,410.4,614.6z"/>
	</g>
</g>
<g id="skin2-L">
	<path id="frontpaws_Path_3" fill="#C8E7C2" d="M551,790c10.3-4.3,21.4-11,32.2-18.8c-5.23-6.09-11.54-11.18-18.6-15
		c1.7-6.5,1.94-13.3,0.7-19.9c-13,0.9-18.1,4.5-18.1,4.5c-0.2-6.3-7.7-12.7-7.7-12.7c-6.4,9.1-13,18.1-18.2,26.6
		C530.8,766,542.9,780.4,551,790z"/>
	<path id="frontpaws_Path_4" fill="#C8E7C2" d="M449,790c-10.3-4.3-21.4-11-32.2-18.8c5.23-6.09,11.54-11.18,18.6-15
		c-1.7-6.5-1.94-13.3-0.7-19.9c13,0.9,18.1,4.5,18.1,4.5c0.2-6.3,7.7-12.7,7.7-12.7c6.4,9.1,13,18.1,18.2,26.6
		C469.2,766,457.1,780.4,449,790z"/>
</g>
<g id="bone">
	<g id="frontpaws_Group_3">
		<path id="frontpaws_Path_5" fill="#523259" d="M551.9,749c-6.9-4.9-15.9-5.6-25.1-2.9c-14.3,16.8-16.2,32-14.4,41.9
			c0,0,3.3,0.6,11.5-9c-2.71,4.59-4.54,9.64-5.4,14.9c9.1,4,27.4,0.5,43-9C564.9,770,561.8,756.2,551.9,749z"/>
		<path id="frontpaws_Path_6" fill="#523259" d="M448.1,749c6.9-4.9,15.9-5.6,25.1-2.9c14.3,16.8,16.2,32,14.4,41.9
			c0,0-3.3,0.6-11.5-9c2.71,4.59,4.54,9.64,5.4,14.9c-9.1,4-27.4,0.5-43-9C435.1,770,438.2,756.2,448.1,749z"/>
	</g>
</g>
<g id="R_x3C_Clip_Group_x3E_">
	<g>
		<g>
			<defs>
				<path id="SVGID_1_" d="M589.6,614.6c-28.2,2.7-19,45.4-30.5,79.3c-9.6,28.3-47.7,63.6-47.2,86c0.4,0.7,0.9,1.4,1.4,2.1
					c5-2.94,10.25-5.42,15.7-7.4c-3.7,7.8-6.3,14.6-7.5,17.6c0.8,0.9,1.6,1.8,2.5,2.7c28.8,6.5,100.1-48.1,108.4-80.5
					C641.4,679,617.8,611.8,589.6,614.6z"/>
			</defs>
			<clipPath id="SVGID_2_">
				<use xlink:href="#SVGID_1_"  overflow="visible"/>
			</clipPath>
			<circle id="frontpaws-mask-r" clip-path="url(#SVGID_2_)" fill="#523259" cx="995" cy="5" r="5"/>
		</g>
	</g>
</g>
<g id="L_x3C_Clip_Group_x3E_">
	<g>
		<g>
			<defs>
				<path id="SVGID_3_" d="M410.4,614.6c-28.2-2.8-51.8,64.4-42.8,99.8c8.3,32.4,79.6,87,108.4,80.5c0.9-0.9,1.7-1.8,2.5-2.7
					c-1.2-3-3.8-9.8-7.5-17.6c5.45,1.98,10.7,4.46,15.7,7.4c0.5-0.7,1-1.4,1.4-2.1c0.5-22.4-37.6-57.7-47.2-86
					C429.4,660,438.6,617.3,410.4,614.6z"/>
			</defs>
			<clipPath id="SVGID_4_">
				<use xlink:href="#SVGID_3_"  overflow="visible"/>
			</clipPath>
			<circle id="frontpaws-mask-l" clip-path="url(#SVGID_4_)" fill="#523259" cx="5" cy="5" r="5"/>
		</g>
	</g>
</g>
</svg>
