<!-- Generator: Electron by Mike Farlenkov, SVG Export Plug-In . SVG Version: 6.00 Build 0)  -->
<svg version="1.1" id="mouth" xmlns="http://www.w3.org/2000/svg" xmlns:xlink="http://www.w3.org/1999/xlink" x="0px" y="0px"
	 viewBox="0 0 800 800" style="enable-background:new 0 0 800 800;" xml:space="preserve">
<style type="text/css">
	.st0{fill:#ABBEDB;}
	.st1{fill:#28003B;}
	.st2{fill:#CF9AD0;}
	.st3{fill:#D2E1F7;}
	.st4{fill:#CC54AA;}
	.st5{fill:#7F086E;}
	.st6{fill:#34074F;}
	.st7{fill:#BECDEA;}
	.st8{fill:#E5EDF9;}
	.st9{fill:#B5C9C0;}
	.st10{fill:#DFEEE8;}
	.st11{fill:#F1F2F2;}
	.st12{clip-path:url(#SVGID_2_);}
	.st13{fill:#18D1AE;}
	.st14{fill:#3EFFDE;}
	.st15{fill:#FFFFFF;}
	.st16{clip-path:url(#SVGID_4_);}
	.st17{fill:#C9D9F2;}
	.st18{fill:none;}
</style>
<path id="skin-D" class="st0" d="M220.4,680.9c40.2-11.8,105.9,6.5,180.1,6.5s139.9-18.3,180.1-6.5c20,6.4,35-15.7,27.7-31.7
	c-14.8-32.4-58-38.8-113.2-59.9c-6.5-46.4-46.4-112.2-94.6-112.2s-88.1,65.7-94.6,112.2c-55.2,21.2-98.4,27.5-113.2,59.9
	C185.4,665.2,191.8,688.5,220.4,680.9z"/>
<g id="blacks_1_">
	<path id="blacks" class="st1" d="M399,485.5c-43.1,10-74.3,38.9-74.3,73.1c0,34.1,31.2,63.1,74.3,73.1c43.1-10,74.3-38.9,74.3-73.1
		S442.1,495.4,399,485.5z"/>
</g>
<g id="nails">
	<path class="st1" d="M604,599.7c-1.4,0.3-3.6,4.6-2.7,9.3c0.9,4.8,4.6,8.2,6,7.9s0.1-4.1-0.8-8.9
		C605.6,603.3,605.4,599.5,604,599.7z"/>
	<path class="st1" d="M627.1,598.4c-1.4-0.5-5,2.2-6,6.8c-1,4.7,1.1,9.5,2.5,10s1.7-3.6,2.6-8.2
		C627.2,602.3,628.5,598.8,627.1,598.4z"/>
	<path class="st1" d="M644.4,608.5c-1.2-1-5.5,0-7.8,3.8s-1.7,9.1-0.5,10.1s2.7-2.6,5-6.4S645.6,609.5,644.4,608.5z"/>
	<path class="st1" d="M196,599.7c-1.4-0.3-1.6,3.6-2.5,8.3c-0.9,4.8-2.3,8.6-0.8,8.9c1.4,0.3,5.1-3.1,6-7.9
		C199.6,604.3,197.4,600,196,599.7z"/>
	<path class="st1" d="M172.9,598.4c-1.4,0.5-0.1,4,0.9,8.6c1,4.7,1.2,8.7,2.6,8.2s3.5-5.4,2.5-10C178,600.5,174.4,597.9,172.9,598.4
		z"/>
	<path class="st1" d="M155.6,608.5c-1.2,1,1.1,3.6,3.4,7.5s3.7,7.4,5,6.4c1.2-1,1.8-6.2-0.5-10.1
		C161.2,608.5,156.9,607.5,155.6,608.5z"/>
</g>
<g id="skin-D_1_">
	<path class="st0" d="M638.6,608.8c-2.2-0.7-4.6-0.8-6.9-0.3c-1.6-3-4.1-5.2-7.3-6.2c-4.1-1.4-8.7-0.4-12.7,2.1c0,0-0.1,0-0.1-0.1
		c-8.3-2.7-18.3,3.7-22.3,14.4c-0.3,0.7-0.5,1.4-0.7,2.1c-0.4,0.7-0.8,1.5-1.1,2.2c-10.9,25.3-4.2,66.6,25.4,65.4
		c21.4-0.8,24.9-19.5,27-45.3c2.8-2.6,5.2-6,6.6-10C650.5,622.4,647,611.5,638.6,608.8z"/>
	<path class="st0" d="M211.4,620.8c-0.2-0.7-0.4-1.4-0.7-2.1c-4-10.7-14-17.1-22.3-14.4c0,0-0.1,0-0.1,0.1c-4-2.6-8.6-3.5-12.7-2.1
		c-3.2,1-5.7,3.3-7.3,6.2c-2.3-0.5-4.7-0.4-6.9,0.3c-8.3,2.7-11.9,13.6-7.9,24.2c1.5,4,3.9,7.4,6.6,10c2.1,25.8,5.6,44.5,27,45.3
		c29.6,1.2,36.4-40.1,25.4-65.4C212.2,622.3,211.8,621.5,211.4,620.8z"/>
</g>
<g id="earskin">
	<path class="st2" d="M623.5,637.9c-6.1-0.8-13.1,7.5-15.8,19.1c-3,12.5-0.1,24.4,6.8,25.6c7,1.2,14.6-9,16.7-22.1
		C633.2,648.5,629.7,638.7,623.5,637.9z"/>
	<path class="st2" d="M176.5,637.9c-6.2,0.8-9.7,10.6-7.7,22.7c2.1,13,9.7,23.3,16.7,22.1c6.9-1.2,9.8-13.1,6.8-25.6
		C189.5,645.3,182.6,637.1,176.5,637.9z"/>
	<path class="st2" d="M176.2,630.4c3.4,0.4,5.9-4.1,5.6-9.5c-0.3-5.1-2.9-9.3-5.9-9.7s-5.7,3.1-5.8,8.2
		C170,624.9,172.7,630,176.2,630.4z"/>
	<path class="st2" d="M195.1,615.4c-2.3-0.5-5.3,2.9-6.6,7.8c-1.5,5.3-0.5,10.3,2.2,10.7s5.7-3.8,6.8-9
		C198.5,620,197.4,615.9,195.1,615.4z"/>
	<path class="st2" d="M167,626.6c-2.1-4.6-5.5-7.4-7.7-6.5s-2.6,5.2-0.7,10.1c2,5.2,5.8,8.7,8.3,7.6
		C169.4,636.7,169.3,631.6,167,626.6z"/>
	<path class="st2" d="M623.8,630.4c3.5-0.4,6.2-5.5,6-11c-0.2-5.1-2.8-8.7-5.8-8.2c-3,0.4-5.6,4.6-5.9,9.7
		C617.9,626.3,620.4,630.7,623.8,630.4z"/>
	<path class="st2" d="M609.4,633.9c2.7-0.4,3.7-5.4,2.2-10.7c-1.4-4.9-4.3-8.3-6.6-7.8s-3.4,4.6-2.4,9.5
		C603.6,630.1,606.7,634.4,609.4,633.9z"/>
	<path class="st2" d="M640.7,620.2c-2.2-0.9-5.5,1.9-7.7,6.5c-2.3,4.9-2.4,10.1,0,11.2c2.5,1.1,6.2-2.4,8.3-7.6
		C643.2,625.4,642.9,621,640.7,620.2z"/>
</g>
<g id="skin-L">
	<path class="st3" d="M489.6,516.3c-28.2,2.7-12.5,47.5-24.1,81.4c-5.8,17-23.4,35.5-26.9,39.6L432,671l41.1-5.5
		c17.3-6.8,49.2-30.8,54.8-52.6C537,577.6,517.8,513.6,489.6,516.3z"/>
	<path class="st3" d="M334.5,597.7c-11.5-33.9,4.1-78.7-24.1-81.4c-28.2-2.7-47.4,61.3-38.3,96.7c5.6,21.8,37.5,45.8,54.8,52.6
		L368,671l-6.7-33.7C357.9,633.2,340.3,614.7,334.5,597.7z"/>
</g>
<g id="bone">
	<path class="st4" d="M447.2,651.2c-3.8-4.2-6.7-8.9-8.6-14c0,0-19.8,17.5-15.6,29.3c1.7-1.2,3.4-1.7,4.1-0.9
		c0.8,0.8-0.1,2.8-1.8,4.5c0.2,0.2,0.5,0.5,0.8,0.8c12.9,11.2,47.7-5.8,47.7-5.8C463.7,663.7,454.4,659,447.2,651.2z"/>
	<path class="st4" d="M352.8,651.2c3.8-4.2,6.7-8.9,8.6-14c0,0,19.9,17.5,15.6,29.3c-1.7-1.2-3.4-1.7-4.1-0.9
		c-0.8,0.8,0.1,2.8,1.9,4.5c-0.2,0.2-0.5,0.5-0.8,0.8c-12.9,11.2-47.7-5.8-47.7-5.8C336.3,663.7,345.6,659,352.8,651.2z"/>
</g>
<g id="bone-D">
	<path class="st5" d="M432.5,659.5c-2.3-1-8.1,1.7-9.4,7.2c0.5-0.3,3.4-1.7,4.1-0.9c0.8,0.8,0.3,3.3-1.8,4.5
		C427,669.3,431.3,663.6,432.5,659.5z"/>
	<path class="st5" d="M367.5,659.5c2.3-1,8.1,1.7,9.4,7.2c-0.5-0.3-3.4-1.7-4.1-0.9c-0.8,0.8-0.3,3.3,1.9,4.5
		C373,669.3,368.6,663.6,367.5,659.5z"/>
</g>
<g id="skin-D_2_">
	<path class="st0" d="M692.5,361.1c-26.7,14.7-132.3-38.8-159.8-36.6s59.3,75.6,98.5,80.2C670.5,409.3,698.5,388.5,692.5,361.1z"/>
	<path class="st0" d="M267.3,324.5c-27.5-2.2-133.1,51.3-159.8,36.6c-6,27.3,22,48.2,61.3,43.6C208,400.2,294.7,326.7,267.3,324.5z"
		/>
</g>
<g id="blacks_2_">
	<path class="st1" d="M532.5,212.4c-0.1-4.5-0.3-8.9-0.7-13.4l-0.2-1.7l-0.1-0.8v-0.4c0-0.3,0,0.3,0,0.2v-0.1V196l-0.4-2.9
		c-0.3-1.9-0.6-3.8-0.9-5.7c-0.1-0.9-0.3-1.9-0.4-2.8c-0.2-1-0.2-1.8-0.4-2.6c-0.2-1.7-0.5-3.5-0.7-5.2c-0.5-3.4-0.8-6.9-1.2-10.4
		s-0.6-6.9-0.9-10.2c-0.3-3.4-0.4-6.6-0.6-9.8c-0.3-6.4-0.4-12.5-0.4-18.1c0-2.8,0.1-5.5,0.1-8.1c0.1-2.6,0.2-5,0.3-7.3
		c0.2-4.6,0.5-8.6,0.9-11.9c0.3-3.3,0.6-5.9,0.9-7.6c0.2-1.7,0.4-2.6,0.4-2.6l0.1-0.5c0.3-1.9-0.6-3.8-2.4-4.8
		c-2.3-1.3-5.2-0.5-6.5,1.8c0,0-0.5,0.9-1.5,2.6c-0.9,1.7-2.2,4.1-3.7,7.3s-3.3,7.1-5.2,11.6c-0.9,2.3-1.9,4.7-2.9,7.3
		c-0.9,2.6-2,5.3-2.9,8.1c-2,5.7-3.9,12-5.7,18.7c-0.9,3.3-1.9,6.8-2.6,10.4c-0.8,3.6-1.7,7.2-2.4,10.9c-0.8,3.7-1.6,7.5-2.2,11.5
		c-0.3,2-0.6,4-1,6c-0.2,1-0.3,2.1-0.5,3c-0.1,0.9-0.3,1.9-0.4,2.8c-0.3,1.9-0.5,3.8-0.8,5.7l-0.4,2.9v0.2v0.1c0,0,0,0.7,0,0.4v0.3
		l-0.1,0.6l-0.1,1.2c-0.4,3.2-1,6.4-1.7,9.6c-1.3,6.4-3.2,12.6-5.4,18.7s-4.8,12-7.5,17.5c-5.5,11.2-11.8,21.2-17.7,29.4
		c-2.9,4.1-5.7,7.8-8.2,11s-4.8,5.8-6.7,8c-1.9,2.1-3.3,3.7-4.3,4.7c-0.5,0.5-0.8,0.8-1,1c-0.1,0.1-0.2,0.1-0.2,0.1s0-0.1,0,0l0,0
		c-1.1,1.1-2.2,2.4-3.2,3.7c-11.9,15.9-8.7,38.4,7.2,50.3s38.4,8.7,50.3-7.2l0.5-0.7c0,0,0.3-0.3,0.7-1c0.4-0.5,0.9-1.3,1.6-2.2
		c1.3-1.9,3-4.5,5-7.8s4.4-7.4,6.9-12.1s5.2-10,7.9-15.9s5.4-12.4,8-19.5c2.5-7,4.9-14.6,7-22.5c2-8,3.7-16.4,4.9-25
		C532.1,230.3,532.7,221.3,532.5,212.4z"/>
	<path class="st1" d="M365.8,298.9L365.8,298.9L365.8,298.9c0,0-0.1,0-0.2-0.1c-0.2-0.2-0.5-0.5-1-1c-0.9-1-2.4-2.5-4.3-4.7
		c-1.9-2.1-4.2-4.8-6.7-8s-5.3-6.9-8.2-11c-5.8-8.2-12.2-18.2-17.7-29.4c-2.8-5.6-5.3-11.5-7.5-17.5c-2.2-6.1-4.1-12.3-5.4-18.7
		c-0.7-3.2-1.2-6.4-1.7-9.6l-0.1-1.2l-0.1-0.6v-0.3c0,0.3,0-0.5,0-0.4v-0.1v-0.2l-0.4-2.9c-0.3-1.9-0.5-3.8-0.8-5.7
		c-0.1-0.9-0.3-1.9-0.4-2.8s-0.3-2-0.5-3c-0.3-2-0.6-4-1-6c-0.6-4-1.4-7.8-2.2-11.5c-0.7-3.7-1.6-7.4-2.4-10.9
		c-0.8-3.6-1.7-7-2.6-10.4c-1.8-6.7-3.7-13-5.7-18.7c-1-2.9-2-5.6-2.9-8.1c-1-2.6-2-5-2.9-7.3c-1.9-4.5-3.6-8.4-5.2-11.6
		c-1.5-3.2-2.8-5.6-3.7-7.3c-1-1.7-1.5-2.6-1.5-2.6c-1.3-2.3-4.2-3.1-6.5-1.8c-1.8,1-2.7,2.9-2.4,4.8l0.1,0.5c0,0,0.1,0.9,0.4,2.6
		c0.2,1.7,0.5,4.3,0.9,7.6c0.3,3.3,0.6,7.3,0.9,11.9c0.1,2.3,0.2,4.7,0.3,7.3c0,2.6,0.1,5.3,0.1,8.1c0,5.6-0.1,11.7-0.4,18.1
		c-0.2,3.2-0.3,6.5-0.6,9.8c-0.3,3.3-0.5,6.7-0.9,10.2c-0.4,3.4-0.7,7-1.2,10.4c-0.2,1.7-0.5,3.4-0.7,5.2c-0.1,0.9-0.2,1.7-0.4,2.6
		c-0.1,0.9-0.3,1.9-0.4,2.8c-0.3,1.9-0.6,3.8-0.9,5.7l-0.4,2.9v0.2v0.1c0,0.1,0-0.6,0-0.2v0.4l-0.1,0.8l-0.2,1.7
		c-0.4,4.4-0.7,8.9-0.7,13.4c-0.1,8.9,0.4,17.9,1.6,26.5c1.1,8.6,2.8,17,4.9,25s4.4,15.5,7,22.5c2.5,7,5.3,13.5,8,19.5
		c2.7,5.9,5.4,11.2,7.9,15.9c2.5,4.7,4.9,8.7,6.9,12.1c2,3.3,3.8,5.9,5,7.8c0.6,0.9,1.2,1.7,1.6,2.2c0.5,0.6,0.7,1,0.7,1l0.5,0.7
		c11.9,15.9,34.4,19.1,50.3,7.2s19.1-34.4,7.2-50.3C368,301.3,366.9,300,365.8,298.9z"/>
</g>
<g id="texture">
	<path class="st6" d="M502.1,185.2c-2.1-1.1-4.2-2.1-6.3-3c-0.6-0.3-1.4,0.1-1.4,0.8c-0.1,0.9-0.2,1.8-0.3,2.7
		c-0.1,0.5,0.2,0.9,0.6,1.1c2.1,0.9,4.3,1.9,6.5,3c0.7,0.3,1.4-0.1,1.5-0.9c0-0.9,0.1-1.8,0.1-2.6
		C502.7,185.8,502.5,185.4,502.1,185.2z"/>
	<path class="st6" d="M501.9,196.8c-2.5-1.2-4.9-2.4-7.3-3.5c-0.6-0.3-1.4,0.2-1.4,0.9c-0.1,0.9-0.2,1.8-0.3,2.8
		c0,0.4,0.2,0.9,0.6,1c2.4,1,4.9,2.1,7.4,3.3c0.7,0.3,1.5-0.1,1.5-0.9c0-0.2,0-0.4,0-0.7c0-0.7,0-1.3,0-2
		C502.5,197.3,502.2,197,501.9,196.8z"/>
	<path class="st6" d="M502.9,173.9c-1.8-0.9-3.6-1.8-5.4-2.7c-0.6-0.3-1.3,0.1-1.4,0.8c-0.2,0.9-0.3,1.7-0.4,2.6
		c-0.1,0.5,0.2,0.9,0.6,1.1c1.8,0.8,3.7,1.7,5.6,2.6c0.7,0.3,1.4-0.1,1.5-0.8c0.1-0.9,0.1-1.7,0.2-2.6
		C503.5,174.5,503.3,174.1,502.9,173.9z"/>
	<path class="st6" d="M501.4,208.3c-2.7-1.4-5.4-2.6-8.1-3.8c-0.6-0.3-1.3,0.1-1.4,0.8c-0.1,0.9-0.3,1.8-0.4,2.7
		c-0.1,0.5,0.2,0.9,0.6,1.1c2.7,1.1,5.4,2.3,8.2,3.6c0.7,0.3,1.4-0.1,1.5-0.8c0.1-0.9,0.1-1.8,0.2-2.6
		C502,208.9,501.8,208.5,501.4,208.3z"/>
	<path class="st6" d="M490.8,261.9c-4.3-1.8-8.3-3.3-12.1-4.6c-0.5-0.2-1,0.1-1.3,0.5c-0.5,1-0.9,1.9-1.3,2.7
		c-0.3,0.6,0,1.2,0.6,1.4c3.7,1.2,7.9,2.6,12.3,4.4c0.5,0.2,1.1,0,1.3-0.6c0.3-0.8,0.7-1.7,1-2.6
		C491.6,262.8,491.3,262.2,490.8,261.9z"/>
	<path class="st6" d="M500.5,219.5c-3.4-1.7-6.1-2.9-9.3-4.2c-0.5-0.2-0.8,0.4-0.9,0.8c-0.2,1-0.4,2-0.5,2.9c-0.1,0.5,0.2,1,0.6,1.1
		c2.9,1.2,5.9,2.5,8.9,3.9c0.6,0.3,1.4-0.1,1.5-0.8c0.1-0.9,0.2-1.7,0.3-2.6C501.1,220.1,500.8,219.7,500.5,219.5z"/>
	<path class="st6" d="M496.9,241.2c-3.5-1.6-7-3.1-10.4-4.4c-0.6-0.2-1.2,0.1-1.4,0.7c-0.3,0.9-0.5,1.8-0.8,2.7
		c-0.2,0.5,0.1,1.1,0.6,1.3c3.3,1.2,6.9,2.6,10.5,4.2c0.6,0.3,1.3-0.1,1.4-0.7c0.2-0.8,0.4-1.7,0.6-2.6
		C497.6,241.9,497.3,241.4,496.9,241.2z"/>
	<path class="st6" d="M504.1,162.8c-1.5-0.8-3-1.6-4.5-2.3c-0.6-0.3-1.3,0.1-1.5,0.7c-0.2,0.8-0.4,1.7-0.5,2.5
		c-0.1,0.5,0.1,0.9,0.6,1.1c1.6,0.7,3.1,1.5,4.7,2.2c0.6,0.3,1.4-0.1,1.5-0.8c0.1-0.8,0.2-1.6,0.3-2.5
		C504.7,163.4,504.5,163,504.1,162.8z"/>
	<path class="st6" d="M498.9,230.5c-3.3-1.6-6.5-3-9.6-4.3c-0.6-0.2-1.2,0.1-1.4,0.7c-0.2,0.9-0.4,1.8-0.7,2.7
		c-0.1,0.5,0.1,1,0.6,1.2c3.1,1.2,6.4,2.6,9.7,4.1c0.6,0.3,1.3-0.1,1.4-0.7c0.2-0.9,0.3-1.7,0.4-2.6
		C499.6,231.1,499.4,230.7,498.9,230.5z"/>
	<path class="st6" d="M486.5,271.9c-4.8-1.9-9.3-3.4-13.3-4.7c-0.4-0.1-0.9,0-1.2,0.4c-1,1.5-1.5,2.2-1.4,2
		c-2.6,3.6-1.8,8.7,1.8,11.3s8.7,1.8,11.3-1.8c0.2-0.3,1.5-2.2,3.2-5.8C487.3,272.8,487.1,272.1,486.5,271.9z"/>
	<path class="st6" d="M517.8,100.8L517.8,100.8c-0.6-0.4-1.3-0.2-1.6,0.5c-0.2,0.5-0.4,1.1-0.6,1.7c-0.2,0.5,0,1,0.4,1.2l0.1,0.1
		c0.6,0.4,1.3,0.1,1.5-0.6c0.2-0.6,0.4-1.2,0.5-1.7C518.4,101.5,518.2,101.1,517.8,100.8z"/>
	<path class="st6" d="M515,110.6c-0.2-0.2-0.5-0.3-0.7-0.5c-0.6-0.4-1.3-0.1-1.5,0.5s-0.4,1.2-0.7,1.9c-0.2,0.5,0,1,0.4,1.2
		c0.3,0.2,0.5,0.3,0.8,0.5c0.6,0.4,1.3,0,1.5-0.6s0.3-1.3,0.5-1.9C515.5,111.3,515.3,110.8,515,110.6z"/>
	<path class="st6" d="M494.2,251.7c-3.9-1.7-7.6-3.2-11.2-4.5c-0.5-0.2-1.1,0.1-1.3,0.6c-0.3,0.9-0.7,1.8-1,2.7
		c-0.2,0.5,0.1,1.2,0.6,1.3c3.5,1.2,7.4,2.7,11.3,4.3c0.6,0.2,1.2-0.1,1.4-0.6c0.3-0.8,0.5-1.7,0.8-2.6
		C494.9,252.4,494.7,251.9,494.2,251.7z"/>
	<path class="st6" d="M505.7,152c-1.2-0.7-2.5-1.3-3.7-1.9c-0.6-0.3-1.3,0-1.5,0.7c-0.2,0.8-0.4,1.6-0.6,2.4c-0.1,0.5,0.1,1,0.6,1.2
		c1.3,0.6,2.6,1.2,3.9,1.9c0.6,0.3,1.4-0.1,1.5-0.8c0.1-0.8,0.2-1.6,0.4-2.4C506.3,152.6,506.1,152.2,505.7,152z"/>
	<path class="st6" d="M520.5,91c-0.3,0.7-0.7,1.6-1.1,2.6c-0.2,0.5,0,1,0.4,1.3c0.2,0.1,0.4,0.3,0.6,0.4c0.3-1.1,0.7-2,0.9-2.8
		c0.1-0.4,0-0.9-0.4-1.2C520.8,91.2,520.6,91.1,520.5,91z"/>
	<path class="st6" d="M507.6,141.3c-1-0.5-1.9-1.1-2.9-1.6c-0.6-0.3-1.3,0-1.5,0.6c-0.2,0.8-0.4,1.5-0.6,2.3c-0.1,0.5,0.1,1,0.5,1.2
		c1,0.5,2,1,3.1,1.6c0.6,0.3,1.4,0,1.5-0.7c0.1-0.8,0.3-1.5,0.4-2.3C508.2,142,508,141.5,507.6,141.3z"/>
	<path class="st6" d="M509.8,130.9c-0.7-0.4-1.4-0.8-2.1-1.2c-0.6-0.3-1.3,0-1.5,0.6c-0.2,0.7-0.4,1.4-0.7,2.2
		c-0.1,0.5,0.1,1,0.5,1.2c0.8,0.4,1.5,0.8,2.3,1.2c0.6,0.3,1.3,0,1.5-0.7s0.3-1.5,0.5-2.2C510.4,131.5,510.2,131.1,509.8,130.9z"/>
	<path class="st6" d="M512.3,120.6c-0.5-0.3-0.9-0.6-1.4-0.8c-0.6-0.3-1.3-0.1-1.5,0.6c-0.2,0.7-0.4,1.3-0.7,2c-0.2,0.5,0,1,0.5,1.2
		c0.5,0.3,1,0.6,1.5,0.9c0.6,0.3,1.3,0,1.5-0.7s0.3-1.4,0.5-2C512.9,121.3,512.7,120.9,512.3,120.6z"/>
	<path class="st6" d="M298.9,189.7c2.2-1.1,4.4-2,6.5-3c0.4-0.2,0.7-0.6,0.6-1.1c-0.1-0.9-0.2-1.8-0.3-2.7c-0.1-0.7-0.8-1.1-1.4-0.8
		c-2.1,1-4.2,2-6.3,3c-0.4,0.2-0.6,0.6-0.6,1c0,0.9,0.1,1.8,0.1,2.6C297.4,189.6,298.2,190,298.9,189.7z"/>
	<path class="st6" d="M299.1,201.3c2.5-1.2,5-2.3,7.4-3.3c0.4-0.2,0.7-0.6,0.6-1c-0.1-0.9-0.2-1.8-0.3-2.8c-0.1-0.7-0.8-1.1-1.4-0.9
		c-2.4,1.1-4.8,2.2-7.3,3.5c-0.4,0.2-0.6,0.5-0.6,0.9c0,0.7,0,1.4,0,2c0,0.2,0,0.4,0,0.7C297.6,201.2,298.4,201.6,299.1,201.3z"/>
	<path class="st6" d="M298.2,178.3c1.9-0.9,3.7-1.8,5.6-2.6c0.4-0.2,0.7-0.6,0.6-1.1c-0.1-0.9-0.3-1.7-0.4-2.6
		c-0.1-0.7-0.8-1-1.4-0.8c-1.8,0.8-3.6,1.7-5.4,2.7c-0.4,0.2-0.6,0.6-0.6,1c0.1,0.9,0.1,1.7,0.2,2.6
		C296.8,178.2,297.6,178.6,298.2,178.3z"/>
	<path class="st6" d="M299.6,212.8c2.8-1.3,5.5-2.5,8.2-3.6c0.4-0.2,0.7-0.6,0.6-1.1c-0.1-0.9-0.3-1.8-0.4-2.7
		c-0.1-0.7-0.8-1.1-1.4-0.8c-2.7,1.2-5.4,2.4-8.1,3.8c-0.4,0.2-0.6,0.6-0.6,1c0.1,0.9,0.1,1.8,0.2,2.6
		C298.2,212.6,299,213.1,299.6,212.8z"/>
	<path class="st6" d="M323.9,260.6c-0.4-0.8-0.9-1.7-1.3-2.7c-0.2-0.5-0.8-0.7-1.3-0.5c-3.8,1.3-7.8,2.8-12.1,4.6
		c-0.5,0.2-0.8,0.8-0.6,1.3c0.3,0.9,0.7,1.8,1,2.6c0.2,0.5,0.8,0.8,1.3,0.6c4.4-1.7,8.6-3.2,12.3-4.4
		C323.9,261.8,324.2,261.2,323.9,260.6z"/>
	<path class="st6" d="M309.7,220.1c0.5-0.2,0.7-0.7,0.6-1.1c-0.2-1-0.4-1.9-0.5-2.9c-0.1-0.4-0.3-0.9-0.9-0.8
		c-3.3,1.4-5.9,2.6-9.3,4.2c-0.4,0.2-0.6,0.6-0.6,1c0.1,0.9,0.2,1.7,0.3,2.6c0.1,0.7,0.8,1.1,1.5,0.8
		C303.8,222.5,306.8,221.2,309.7,220.1z"/>
	<path class="st6" d="M315.7,240.2c-0.3-0.9-0.6-1.8-0.8-2.7c-0.2-0.6-0.8-0.9-1.4-0.7c-3.3,1.3-6.8,2.8-10.4,4.4
		c-0.4,0.2-0.7,0.7-0.6,1.2c0.2,0.9,0.4,1.7,0.6,2.6c0.1,0.6,0.8,0.9,1.4,0.7c3.6-1.6,7.2-3,10.5-4.2
		C315.6,241.2,315.8,240.7,315.7,240.2z"/>
	<path class="st6" d="M297.1,167.1c1.6-0.8,3.2-1.5,4.7-2.2c0.4-0.2,0.7-0.7,0.6-1.1c-0.2-0.8-0.3-1.7-0.5-2.5
		c-0.1-0.7-0.9-1-1.5-0.7c-1.5,0.7-3,1.5-4.5,2.3c-0.4,0.2-0.6,0.6-0.5,1c0.1,0.8,0.2,1.6,0.3,2.5
		C295.7,167,296.5,167.4,297.1,167.1z"/>
	<path class="st6" d="M312.7,229.7c-0.2-0.9-0.4-1.8-0.7-2.7c-0.1-0.6-0.8-1-1.4-0.7c-3.1,1.3-6.3,2.7-9.6,4.3
		c-0.4,0.2-0.6,0.7-0.6,1.1c0.1,0.9,0.3,1.7,0.4,2.6c0.1,0.7,0.8,1,1.4,0.7c3.3-1.5,6.6-2.9,9.7-4.1
		C312.5,230.7,312.8,230.2,312.7,229.7z"/>
	<path class="st6" d="M327.9,267.7c-0.3-0.4-0.7-0.6-1.2-0.4c-3.9,1.2-8.5,2.8-13.3,4.7c-0.6,0.2-0.8,0.9-0.5,1.4
		c1.7,3.5,3,5.5,3.2,5.8c2.6,3.6,7.7,4.5,11.3,1.8s4.5-7.7,1.8-11.3C329.4,269.9,328.9,269.2,327.9,267.7z"/>
	<path class="st6" d="M283.7,101.3c-0.2-0.6-1-0.9-1.5-0.5l0,0c-0.4,0.3-0.5,0.7-0.4,1.1c0.2,0.6,0.3,1.1,0.5,1.7
		c0.2,0.7,1,0.9,1.5,0.6l0.1-0.1c0.4-0.3,0.6-0.8,0.4-1.2C284.1,102.4,283.9,101.8,283.7,101.3z"/>
	<path class="st6" d="M287.9,112.5c-0.2-0.6-0.4-1.3-0.7-1.9c-0.2-0.6-1-0.9-1.5-0.5c-0.2,0.1-0.5,0.3-0.7,0.5
		c-0.4,0.2-0.5,0.7-0.4,1.1c0.2,0.6,0.3,1.3,0.5,1.9c0.2,0.7,0.9,1,1.5,0.6c0.3-0.2,0.5-0.3,0.8-0.5
		C287.9,113.5,288.1,113,287.9,112.5z"/>
	<path class="st6" d="M319.3,250.5c-0.3-0.9-0.7-1.8-1-2.7c-0.2-0.5-0.8-0.8-1.3-0.6c-3.5,1.3-7.3,2.8-11.2,4.5
		c-0.5,0.2-0.7,0.7-0.6,1.2c0.3,0.9,0.5,1.7,0.8,2.6c0.2,0.6,0.8,0.9,1.4,0.6c4-1.7,7.8-3.1,11.3-4.3
		C319.3,251.6,319.6,251,319.3,250.5z"/>
	<path class="st6" d="M299.5,154.3c0.4-0.2,0.7-0.7,0.6-1.2c-0.2-0.8-0.4-1.6-0.6-2.4c-0.2-0.6-0.9-1-1.5-0.7
		c-1.2,0.6-2.5,1.3-3.7,1.9c-0.4,0.2-0.6,0.6-0.5,1.1c0.1,0.8,0.3,1.6,0.4,2.4c0.1,0.7,0.9,1.1,1.5,0.8
		C296.9,155.5,298.2,154.9,299.5,154.3z"/>
	<path class="st6" d="M279.5,91c-0.1,0.1-0.3,0.2-0.4,0.3c-0.4,0.3-0.5,0.7-0.4,1.2c0.3,0.8,0.6,1.8,0.9,2.8
		c0.2-0.1,0.4-0.3,0.6-0.4c0.4-0.3,0.6-0.8,0.4-1.3C280.2,92.6,279.8,91.7,279.5,91z"/>
	<path class="st6" d="M296.9,143.8c0.4-0.2,0.7-0.7,0.5-1.2c-0.2-0.8-0.4-1.5-0.6-2.3c-0.2-0.6-0.9-0.9-1.5-0.6
		c-1,0.5-1.9,1-2.9,1.6c-0.4,0.2-0.6,0.7-0.5,1.1c0.1,0.8,0.3,1.5,0.4,2.3c0.1,0.7,0.9,1,1.5,0.7
		C294.8,144.9,295.8,144.3,296.9,143.8z"/>
	<path class="st6" d="M294.5,132.4c-0.2-0.7-0.4-1.5-0.7-2.2c-0.2-0.6-0.9-0.9-1.5-0.6c-0.7,0.4-1.4,0.8-2.1,1.2
		c-0.4,0.2-0.6,0.7-0.5,1.1c0.2,0.7,0.3,1.4,0.5,2.2c0.1,0.7,0.9,1,1.5,0.7c0.8-0.4,1.5-0.8,2.3-1.2
		C294.4,133.4,294.6,132.9,294.5,132.4z"/>
	<path class="st6" d="M291.3,122.3c-0.2-0.7-0.4-1.4-0.7-2c-0.2-0.6-0.9-0.9-1.5-0.6c-0.5,0.3-0.9,0.6-1.4,0.8
		c-0.4,0.2-0.6,0.7-0.5,1.1c0.2,0.7,0.3,1.4,0.5,2c0.2,0.7,0.9,1,1.5,0.7c0.5-0.3,1-0.6,1.5-0.9
		C291.3,123.3,291.5,122.8,291.3,122.3z"/>
</g>
<g id="earskin_1_">
	<path class="st2" d="M673.3,380c-1-1.8-21.1-5.2-27.5-6.4c-7.3-1.3-107.8-43.8-116.7-36.5c-8.8,7.4,72.1,51.4,99.6,59.3
		C656.3,404.3,675.9,384.7,673.3,380z"/>
	<path class="st2" d="M154.2,373.6c-6.4,1.1-26.5,4.6-27.5,6.4c-2.6,4.8,17,24.4,44.5,16.5s108.5-51.9,99.6-59.3
		C262,329.8,161.5,372.3,154.2,373.6z"/>
</g>
<path id="skin-D_3_" class="st0" d="M205.6,381.6c0-73.2,86.6-132.5,193.4-132.5s193.4,59.3,193.4,132.5S505.8,541.8,399,541.8
	S205.6,454.8,205.6,381.6z"/>
<path id="skin" class="st7" d="M251.8,383.2c0-64.6,65.9-117,147.2-117s147.2,52.4,147.2,117S480.3,524.7,399,524.7
	S251.8,447.8,251.8,383.2z"/>
<path id="skin-L_1_" class="st3" d="M473.1,311.4c0,21.4-33.2,38.7-74.1,38.7s-74.1-17.3-74.1-38.7c0-21.4,33.2-38.7,74.1-38.7
	C439.9,272.7,473.1,290,473.1,311.4z"/>
<path id="skin2-L" class="st8" d="M399,428.9c-50.6,0-69.3,70.8-67.6,101.3c10.1,14.4,36.8,20.2,67.6,20.2s57.5-5.8,67.6-20.2
	C468.3,499.7,449.6,428.9,399,428.9z"/>
<path id="blacks_3_" class="st1" d="M428.1,227.7c-6.4-3-16.9,6-23.5,20.1c-1.5,3.2-2.8,6.8-4,10.4c-0.1-0.3-0.3-0.6-0.4-0.9
	c-5-10.5-13.7-16.7-19.5-14c-5.7,2.7-6.3,13.5-1.3,23.9s16.7,22.8,22.4,20.1l0.1-0.1c6.9-0.1,19.6-15.7,25.7-28.7
	C434.2,244.5,434.4,230.7,428.1,227.7z"/>
<g id="eyes">
	<g id="skin_1_">
		<path class="st7" d="M318.9,388.2c49.2,7.4,41.7,58.3,41.7,58.3s-98.4-16.5-98.4-22.9C262.2,417.2,273.3,381.3,318.9,388.2z"/>
		<path class="st7" d="M481.1,388.2c-49.2,7.4-41.7,58.3-41.7,58.3s98.4-16.5,98.4-22.9C537.8,417.2,526.7,381.3,481.1,388.2z"/>
	</g>
</g>
<g id="blacks_4_">
	<g>
		<path class="st1" d="M363.9,455.4c0.6-1.2-3.2-7.7-3.2-7.7s1.9-52.8-47.5-56.8c-43.5-3.5-51,32.4-51,32.4s-7.5,1.2-7,5.2
			c0.6,4.1,6.4,4.6,6.4,4.6s-0.6,29,35.3,38.8c37.5,10.3,57.9-16.8,57.9-16.8S363.3,456.5,363.9,455.4z"/>
	</g>
	<path class="st1" d="M436.1,455.4c-0.6-1.2,3.2-7.7,3.2-7.7s-1.9-52.8,47.5-56.8c43.5-3.5,51,32.4,51,32.4s7.5,1.2,7,5.2
		c-0.6,4.1-6.4,4.6-6.4,4.6s0.6,29-35.3,38.8c-37.5,10.3-57.9-16.8-57.9-16.8S436.7,456.5,436.1,455.4z"/>
</g>
<g id="eye-D">
	<path class="st9" d="M270,425.7c1.1-9.8,16.3-33,50.6-25.4c21.6,4.8,30.5,29.5,27.5,43.7c-2.6,12-20.4,29.6-49.6,22.5
		C273.1,460.4,268.5,438.4,270,425.7z"/>
	<path class="st9" d="M530,425.7c-1.1-9.8-16.3-33-50.6-25.4c-21.6,4.8-30.5,29.5-27.5,43.7c2.6,12,20.4,29.6,49.6,22.5
		C526.9,460.4,531.5,438.4,530,425.7z"/>
</g>
<g id="eye">
	<g>
		<g>
			<g>
				<g>
					<g>
						<path class="st10" d="M271.4,420.6c4.6-10.9,20-26.7,49.2-20.2c3.6,0.8,6.9,2.2,9.9,4c11.5,9.2,15.4,25.9,12.7,36.1
							c-2.9,11-20.2,26.5-46.9,18.6C273.2,452.4,269.7,432.4,271.4,420.6z"/>
					</g>
				</g>
			</g>
		</g>
	</g>
	<path class="st10" d="M528.6,420.6c-4.6-10.9-20-26.7-49.2-20.2c-3.6,0.8-6.9,2.2-9.9,4c-11.5,9.2-15.4,25.9-12.7,36.1
		c2.9,11,20.2,26.5,46.9,18.6C526.8,452.4,530.3,432.4,528.6,420.6z"/>
</g>
<g id="eye-L">
	
		<ellipse transform="matrix(0.9862 -0.1657 0.1657 0.9862 -66.6908 56.6056)" class="st11" cx="305.9" cy="428" rx="34.5" ry="27.2"/>
	
		<ellipse transform="matrix(0.1657 -0.9862 0.9862 0.1657 -9.8565 844.2928)" class="st11" cx="494.1" cy="428" rx="27.2" ry="34.5"/>
</g>
<g>
	<defs>
		<path id="SVGID_1_" d="M270,425.7c1.1-9.8,16.3-33,50.6-25.4c21.6,4.8,30.5,29.5,27.5,43.7c-2.6,12-20.4,29.6-49.6,22.5
			C273.1,460.4,268.5,438.4,270,425.7z"/>
	</defs>
	<clipPath id="SVGID_2_">
		<use xlink:href="#SVGID_1_"  style="overflow:visible;"/>
	</clipPath>
	<g id="filler-eyes-l" class="st12">
		<g id="pupil">
			<ellipse class="st13" cx="478.6" cy="428.9" rx="37.6" ry="37.6"/>
			
				<ellipse transform="matrix(0.7071 -0.7071 0.7071 0.7071 -209.1902 352.7996)" class="st13" cx="321.3" cy="428.9" rx="37.6" ry="37.6"/>
		</g>
		<g id="pupil-L">
			<ellipse class="st14" cx="478.6" cy="449" rx="24.6" ry="17.3"/>
			<ellipse class="st14" cx="321.3" cy="449" rx="24.6" ry="17.3"/>
		</g>
		<g id="blacks_5_">
			<circle class="st1" cx="478.6" cy="428.9" r="30.8"/>
			<circle class="st1" cx="321.3" cy="428.9" r="30.8"/>
		</g>
		<g id="pupil_1_">
			<path class="st13" d="M478.7,434.5c-9.3,0-17,4.7-17.8,10.6c4,5,10.5,8.2,17.8,8.2s13.7-3.2,17.8-8.2
				C495.7,439.1,488,434.5,478.7,434.5z"/>
			<path class="st13" d="M321.4,434.5c-9.3,0-17,4.7-17.8,10.6c4,5,10.5,8.2,17.8,8.2s13.7-3.2,17.8-8.2
				C338.4,439.1,330.7,434.5,321.4,434.5z"/>
		</g>
		<g id="whites">
			<path class="st15" d="M502,403.5c-2.8-2.8-9.4-0.9-14.6,4.4c-5.3,5.3-7.2,11.8-4.4,14.6s9.4,0.9,14.6-4.4
				C502.9,412.9,504.8,406.3,502,403.5z"/>
			<path class="st15" d="M330.1,407.9c-5.3,5.3-7.2,11.8-4.4,14.6s9.4,0.9,14.6-4.4c5.3-5.2,7.2-11.8,4.4-14.6
				S335.3,402.6,330.1,407.9z"/>
		</g>
	</g>
</g>
<g>
	<defs>
		<path id="SVGID_3_" d="M530,425.7c-1.1-9.8-16.3-33-50.6-25.4c-21.6,4.8-30.5,29.5-27.5,43.7c2.6,12,20.4,29.6,49.6,22.5
			C526.9,460.4,531.5,438.4,530,425.7z"/>
	</defs>
	<clipPath id="SVGID_4_">
		<use xlink:href="#SVGID_3_"  style="overflow:visible;"/>
	</clipPath>
	<g id="filler-eyes-r" class="st16">
		<g id="pupil_2_">
			<ellipse class="st13" cx="478.6" cy="428.9" rx="37.6" ry="37.6"/>
			
				<ellipse transform="matrix(0.7071 -0.7071 0.7071 0.7071 -209.1902 352.7996)" class="st13" cx="321.3" cy="428.9" rx="37.6" ry="37.6"/>
		</g>
		<g id="pupil-L_1_">
			<ellipse class="st14" cx="478.6" cy="449" rx="24.6" ry="17.3"/>
			<ellipse class="st14" cx="321.3" cy="449" rx="24.6" ry="17.3"/>
		</g>
		<g id="blacks_6_">
			<circle class="st1" cx="478.6" cy="428.9" r="30.8"/>
			<circle class="st1" cx="321.3" cy="428.9" r="30.8"/>
		</g>
		<g id="pupil_3_">
			<path class="st13" d="M478.7,434.5c-9.3,0-17,4.7-17.8,10.6c4,5,10.5,8.2,17.8,8.2s13.7-3.2,17.8-8.2
				C495.7,439.1,488,434.5,478.7,434.5z"/>
			<path class="st13" d="M321.4,434.5c-9.3,0-17,4.7-17.8,10.6c4,5,10.5,8.2,17.8,8.2s13.7-3.2,17.8-8.2
				C338.4,439.1,330.7,434.5,321.4,434.5z"/>
		</g>
		<g id="whites_1_">
			<path class="st15" d="M502,403.5c-2.8-2.8-9.4-0.9-14.6,4.4c-5.3,5.3-7.2,11.8-4.4,14.6s9.4,0.9,14.6-4.4
				C502.9,412.9,504.8,406.3,502,403.5z"/>
			<path class="st15" d="M330.1,407.9c-5.3,5.3-7.2,11.8-4.4,14.6s9.4,0.9,14.6-4.4c5.3-5.2,7.2-11.8,4.4-14.6
				S335.3,402.6,330.1,407.9z"/>
		</g>
	</g>
</g>
<g>
	<path class="st1" d="M530.2,357.3c0,0-0.1-0.1-0.2-0.2c-0.1-0.2-0.4-0.4-0.7-0.7c-0.5-0.6-1.3-1.4-2.3-2.4c-2-2-5-4.7-8.9-7.5
		c-2-1.4-4.1-2.9-6.5-4.2c-1.2-0.7-2.5-1.4-3.7-2.1c-1.3-0.6-2.6-1.3-4-1.9c-2.8-1.3-5.8-2.3-8.8-3.3c-3.1-0.9-6.3-1.7-9.5-2.2
		c-0.8-0.1-1.6-0.3-2.4-0.4l-2.5-0.3c-1.6-0.2-3.3-0.3-4.9-0.4c-1.6-0.1-3.2,0-4.8,0s-3.2,0.2-4.7,0.2c-3.1,0.3-6,0.6-8.8,1.2
		c-0.7,0.1-1.4,0.2-2.1,0.4c-0.7,0.2-1.3,0.3-2,0.5c-1.3,0.3-2.6,0.6-3.7,0.9c-2.3,0.7-4.5,1.3-6.4,2s-3.5,1.2-4.8,1.8
		c-2.6,1.1-4.1,1.7-4.1,1.7c-0.2,0.1-0.4,0.2-0.6,0.3c-4.5,2.3-6.3,7.9-4,12.4s7.9,6.3,12.4,4l0.4-0.2c0,0,1.2-0.6,3.3-1.7
		c1-0.6,2.4-1.1,3.9-1.8c1.5-0.7,3.2-1.3,5.1-2.1c0.9-0.4,1.9-0.6,3-1c0.5-0.2,1-0.3,1.6-0.5c0.5-0.2,1.1-0.3,1.6-0.4
		c2.2-0.6,4.6-1.1,7-1.5c1.2-0.1,2.5-0.4,3.7-0.5c1.3-0.1,2.6-0.3,3.9-0.2c1.3,0,2.6-0.1,3.9,0l2,0.1l2,0.2c2.6,0.2,5.3,0.7,7.8,1.2
		c2.6,0.6,5.1,1.3,7.4,2.2c1.2,0.4,2.3,0.9,3.5,1.3c1.1,0.5,2.2,1,3.3,1.5c2.1,1,4,2.1,5.8,3.2c3.5,2.1,6.2,4.2,8,5.8
		c0.9,0.8,1.6,1.4,2,1.8c0.2,0.2,0.3,0.3,0.4,0.4c0.1,0.1,0.2,0.2,0.2,0.2l0.1,0.1c2.1,2.1,5.4,2.2,7.7,0.3
		C531.9,363.3,532.2,359.7,530.2,357.3z"/>
	<path class="st1" d="M366.4,340.7c-0.2-0.1-0.4-0.2-0.6-0.3c0,0-1.5-0.6-4.1-1.7c-1.3-0.6-2.9-1.1-4.8-1.8c-1.8-0.7-4-1.3-6.4-2
		c-1.2-0.4-2.4-0.6-3.7-0.9c-0.6-0.2-1.3-0.3-2-0.5c-0.7-0.1-1.4-0.3-2.1-0.4c-2.8-0.5-5.7-0.9-8.8-1.2c-1.5-0.1-3.1-0.2-4.7-0.2
		s-3.2-0.1-4.8,0c-1.6,0.1-3.3,0.1-4.9,0.4l-2.5,0.3c-0.8,0.1-1.6,0.3-2.4,0.4c-3.3,0.5-6.4,1.3-9.5,2.2c-3.1,1-6.1,2-8.8,3.3
		c-1.4,0.6-2.7,1.3-4,1.9c-1.3,0.7-2.6,1.3-3.7,2.1c-2.4,1.4-4.6,2.9-6.5,4.2c-3.9,2.8-6.9,5.5-8.9,7.5c-1,1-1.8,1.8-2.3,2.4
		c-0.3,0.3-0.5,0.6-0.7,0.7c-0.1,0.2-0.2,0.2-0.2,0.2c-2,2.4-1.7,5.9,0.6,8c2.3,1.9,5.6,1.8,7.7-0.3l0.1-0.1c0,0,0.1-0.1,0.2-0.2
		s0.2-0.2,0.4-0.4c0.4-0.4,1.1-1,2-1.8c1.8-1.5,4.5-3.6,8-5.8c1.8-1,3.7-2.2,5.8-3.2c1-0.5,2.2-1,3.3-1.5c1.1-0.4,2.3-1,3.5-1.3
		c2.4-0.9,4.9-1.6,7.4-2.2c2.6-0.5,5.2-1,7.8-1.2l2-0.2l2-0.1c1.3-0.1,2.6,0,3.9,0s2.6,0.2,3.9,0.2c1.3,0.1,2.5,0.3,3.7,0.5
		c2.5,0.4,4.8,0.9,7,1.5c0.6,0.1,1.1,0.3,1.6,0.4c0.5,0.2,1.1,0.3,1.6,0.5c1,0.3,2,0.6,3,1c1.9,0.7,3.6,1.3,5.1,2.1
		c1.5,0.7,2.8,1.2,3.9,1.8c2.1,1.1,3.3,1.7,3.3,1.7l0.4,0.2c4.5,2.3,10,0.5,12.4-4C372.7,348.5,370.9,343,366.4,340.7z"/>
</g>
<path id="skin2" class="st17" d="M424.2,478.7c-10.7-1.7-20.5,4.3-24.2,12.4c-3.7-8.2-13.5-14.1-24.2-12.4c-9,1.4-13.5,9-13.5,15.8
	c0,5.4,2.7,11.5,7.2,15.5c6.6,6,18.7,9,26.5,0.9c1.8-1.9,3.1-3.8,4-5.7c0.9,2,2.2,3.9,4,5.7c7.7,8.1,19.9,5.1,26.5-0.9
	c4.5-4.1,7.2-10.2,7.2-15.5C437.7,487.8,433.2,480.1,424.2,478.7z"/>
<path id="skin-L_2_" class="st3" d="M427,470.8c0,13.3-12.1,14.7-27,14.7c-14.9,0-27-1.3-27-14.7c0-13.3,12.1-24.1,27-24.1
	C414.9,446.7,427,457.5,427,470.8z"/>
<path id="nose" class="st4" d="M426.2,474.9c0,0-6.1-11.4-26.2-11.4c-20.1,0-26.2,11.4-26.2,11.4c-1.5,3.5,6.2,11.8,17,15.3
	c0.6,0.2,1.4,0.4,2.3,0.5c1.2,5.7,3.8,9.8,6.9,9.8s5.7-4,6.9-9.8c0.9-0.1,1.8-0.3,2.3-0.5C420,486.7,427.7,478.4,426.2,474.9z"/>
<g id="blacks_7_">
	<path class="st1" d="M411,483.4c-1.9,2-2.6,4.5-1.5,5.6s3.5,0.3,5.5-1.7c1.9-2,2.6-4.5,1.5-5.6C415.3,480.6,412.9,481.4,411,483.4z
		"/>
	<path class="st1" d="M389,483.4c1.9,2,2.6,4.5,1.5,5.6s-3.5,0.3-5.5-1.7c-1.9-2-2.6-4.5-1.5-5.6C384.7,480.6,387.1,481.4,389,483.4
		z"/>
</g>
<path id="whites_2_" class="st15" d="M411.6,469.7c-0.1,0.7-1.6,1.1-3.5,0.9c-1.8-0.2-3.3-0.9-3.2-1.6c0.1-0.7,1.6-1.1,3.5-0.9
	S411.7,469,411.6,469.7z"/>
<path id="blacks_8_" class="st1" d="M432.4,505c-0.9-1.6-2.9-2.3-4.6-1.4c-1.1,0.6-1.7,1.7-1.8,2.8c-0.7,0.2-1.5,0.5-2.4,0.8
	c-1.1,0.3-2.3,0.7-3.7,1c-1.3,0.4-2.8,0.7-4.4,1.1c-0.8,0.2-1.6,0.4-2.4,0.5c-0.8,0.1-1.7,0.3-2.5,0.4c-1.7,0.4-3.5,0.4-5.3,0.6
	c-0.9,0.1-1.8,0.1-2.7,0.2c-0.9,0-1.8,0.1-2.7,0.1c-1.8,0-3.7,0-5.5-0.2c-1.8-0.1-3.6-0.4-5.3-0.6c-1.7-0.3-3.4-0.5-4.9-0.9
	c-1.6-0.3-3-0.7-4.4-1.1c-1.3-0.4-2.6-0.7-3.7-1.1c-0.5-0.2-1.1-0.3-1.5-0.5c-0.3-0.1-0.5-0.2-0.8-0.3c0-1.1-0.6-2.3-1.6-2.9
	c-1.6-1-3.7-0.5-4.6,1.1c-1,1.6-0.5,3.7,1.1,4.6c1.1,0.7,2.5,0.6,3.6-0.1c0.3,0.2,0.5,0.3,0.9,0.5c0.5,0.3,0.9,0.5,1.5,0.9
	c1.1,0.6,2.3,1.2,3.7,1.8c1.4,0.6,2.9,1.2,4.5,1.8s3.4,1,5.2,1.5c1.9,0.3,3.8,0.8,5.8,0.9c2,0.3,4,0.3,6,0.4c1,0,2-0.1,3-0.1
	c1-0.1,2-0.1,3-0.2c2-0.3,3.9-0.5,5.8-1c0.9-0.2,1.8-0.5,2.7-0.7c0.9-0.2,1.7-0.6,2.5-0.8c1.6-0.6,3.2-1.1,4.5-1.8
	c1.3-0.6,2.6-1.2,3.7-1.8c0.9-0.5,1.6-1,2.3-1.4c1,0.7,2.4,0.9,3.6,0.3C432.7,508.7,433.3,506.7,432.4,505z"/>
<rect class="st18" width="800" height="800"/>
</svg>
