<!-- Generator: Electron by Mike Farlenkov, SVG Export Plug-In . SVG Version: 6.00 Build 0)  -->
<svg version="1.1" id="mouth" xmlns="http://www.w3.org/2000/svg" xmlns:xlink="http://www.w3.org/1999/xlink" x="0px" y="0px"
	 viewBox="0 0 800 800" style="enable-background:new 0 0 800 800;" xml:space="preserve">
<style type="text/css">
	.st0{fill:#32C682;}
	.st1{fill:#EDEA94;}
	.st2{fill:#720062;}
	.st3{fill:#89127E;}
	.st4{fill:#5BF4A4;}
	.st5{fill:#506D6D;}
	.st6{fill:#F4F2A6;}
	.st7{fill:#2CE589;}
	.st8{fill:#B5C9C0;}
	.st9{fill:#DFEEE8;}
	.st10{fill:#F1F2F2;}
	.st11{clip-path:url(#SVGID_2_);}
	.st12{fill:#7B00BC;}
	.st13{fill:#FF00FF;}
	.st14{fill:#00CFFF;}
	.st15{fill:#FFFFFF;}
	.st16{clip-path:url(#SVGID_4_);}
	.st17{fill:#FF722C;}
	.st18{fill:#201A33;}
	.st19{fill:#FFCE88;}
	.st20{fill:none;}
</style>
<path id="skin-D" class="st0" d="M563.2,612.1c-37-23.4-84.9-50.9-84.9-50.9C464.2,529,502,475.6,400,475.6s-64.2,53.4-78.4,85.6
	c0,0-47.9,27.5-84.9,50.9c-31.2,19.7-72.4,33.2-44.3,62.1c10.9,11.3,93.3,12.8,207.6,12.8s196.6-1.5,207.6-12.8
	C635.6,645.3,594.4,631.8,563.2,612.1z"/>
<path id="skin2-D" class="st1" d="M399.1,512.1c-49.5,0-54,40.7-54,40.7c0.1,9.3,3.2,18.4,9.3,25.9c3,3.7,6.4,6.7,10.2,9
	c6.4-5.6,18.5-10.6,34.5-14.4c16,3.8,28.1,8.8,34.5,14.4c3.8-2.4,7.3-5.4,10.2-9c6.1-7.5,9.1-16.6,9.3-25.9
	C453.2,552.8,448.7,512.1,399.1,512.1z"/>
<g id="blacks">
	<path class="st2" d="M631.4,590.7c-2.3-1.1-4.6-1.5-7-1.3c-1.6-3.4-4.1-6.2-7.3-7.8c-4.2-2-8.8-1.7-12.8,0.5l-0.1-0.1
		c-8.4-4.1-18.5,1.4-22.6,12.4c0,0-3,16.8-0.3,39.5s-19.3,35-10,37.8c52,15.9,58.9-16.1,61.2-43.8c2.8-2.4,5.2-5.7,6.8-9.9
		C643.3,607,639.8,594.8,631.4,590.7z"/>
	<path class="st2" d="M218.8,633.9c2.7-22.7-0.3-39.5-0.3-39.5c-4.1-11-14.2-16.6-22.6-12.4l-0.1,0.1c-4.1-2.2-8.7-2.6-12.8-0.5
		c-3.2,1.6-5.7,4.4-7.3,7.8c-2.4-0.2-4.7,0.2-7,1.3c-8.4,4.1-11.9,16.4-7.8,27.4c1.5,4.1,3.9,7.5,6.8,9.9
		c2.3,27.7,9.2,59.7,61.2,43.8C238.1,668.9,216.1,656.6,218.8,633.9z"/>
</g>
<g id="texture">
	<path class="st3" d="M616,620c-6.1-1.7-13.2,6.2-16.1,18.5c-3.1,13.2-0.2,26.4,6.7,28.7c7,2.3,14.8-7.7,17-21.5
		C625.7,632.9,622.2,621.8,616,620z"/>
	<path class="st3" d="M602.6,612.2c2.6,1,4.7-3.5,4.8-9.7c0-5.8-1.8-10.8-4.1-11.5c-2.2-0.7-4.3,2.9-4.6,8.4
		C598.3,605.2,600.1,611.2,602.6,612.2z"/>
	<path class="st3" d="M617.7,611.8c2.4,1.6,5.1-2.4,5.8-8.4c0.7-5.7-0.6-11-2.7-12.3c-2.1-1.3-4.6,1.8-5.5,7.1
		C614.2,603.9,615.3,610.2,617.7,611.8z"/>
	<path class="st3" d="M636.2,603.7c-2.2-1.2-5.6,1.3-7.8,5.9c-2.4,5-2.5,10.6,0,12.1c2.5,1.6,6.3-1.8,8.4-7.1
		C638.7,609.7,638.4,604.9,636.2,603.7z"/>
	<path class="st3" d="M184,620c-6.2,1.7-9.7,12.9-7.6,25.7c2.3,13.8,10,23.9,17,21.5c6.9-2.3,9.8-15.5,6.7-28.7
		C197.3,626.3,190.2,618.3,184,620z"/>
	<path class="st3" d="M197.4,612.2c2.5-1,4.3-7,3.9-12.9c-0.3-5.5-2.4-9.1-4.6-8.4c-2.3,0.8-4.1,5.8-4.1,11.5
		C192.7,608.7,194.8,613.2,197.4,612.2z"/>
	<path class="st3" d="M182.3,611.8c2.4-1.6,3.5-7.8,2.4-13.6c-1-5.3-3.4-8.4-5.5-7.1c-2.2,1.3-3.4,6.6-2.7,12.3
		C177.2,609.4,179.9,613.4,182.3,611.8z"/>
	<path class="st3" d="M163.8,603.7c-2.2,1.3-2.5,6-0.6,11c2.1,5.3,6,8.7,8.4,7.1c2.4-1.5,2.3-7.1,0-12.1
		C169.4,605,166,602.4,163.8,603.7z"/>
</g>
<g id="skin-L">
	<path id="R" class="st4" d="M550.3,599.8l-15.7,10.3c0,0,15.7-18.6,11.7-43.5l-13.7,11.5c0-0.1,0-0.1,0-0.2
		c1.2-2.4,7.7-16,4.1-29.6l-8.9,10.1c-8-24.6-22.4-45.1-38.2-43.6c-28.2,2.7-19,45.4-30.5,79.3c-7,20.6-29.1,44.9-40.4,65.3
		c-8.5,11.9-12.4,23.3-8.8,26.6c0.9,0.8,2,1,3.5,0.8c-0.6,3.1-0.3,5.4,1,6.6c1.3,1.1,3.3,1.1,5.8,0.2c-0.2,1-0.2,1.8,0.1,2.6
		c2.1,4.8,15.7,2.5,30.4-5.2c1.5-0.8,3-1.6,4.4-2.5c16.8-7.9,35.5-21.2,50.3-35.6c4.4-0.9,29.8-6.5,36.2-20.5l-17,1.4
		C524.7,633.8,550.3,621,550.3,599.8z"/>
	<path id="L" class="st4" d="M340.9,594.2c-11.5-33.9-2.3-76.6-30.5-79.3c-15.9-1.5-30.3,19-38.2,43.6l-8.9-10.1
		c-3.6,13.5,2.8,27.2,4.1,29.6c0,0.1,0,0.1,0,0.2l-13.7-11.5c-4,24.9,11.7,43.5,11.7,43.5l-15.7-10.3c0,21.1,25.6,34,25.6,34
		l-17-1.4c6.5,14,31.9,19.6,36.2,20.5c14.9,14.3,33.6,27.7,50.3,35.6c1.4,0.8,2.9,1.7,4.4,2.5c14.6,7.7,28.2,10,30.4,5.2
		c0.3-0.8,0.4-1.6,0.1-2.6c2.5,1,4.5,1,5.8-0.2c1.3-1.2,1.6-3.5,1-6.6c1.5,0.2,2.6,0,3.5-0.8c3.6-3.2-0.3-14.7-8.8-26.6
		C370,639.1,347.9,614.8,340.9,594.2z"/>
</g>
<g id="nails">
	<path id="_x36_" class="st5" d="M417.5,688.3c-1.1-0.4-3.2,1-4,3.2c-0.7,2.2,0.2,4.6,1.3,4.9s2-1.4,2.7-3.6
		C418.2,690.6,418.6,688.7,417.5,688.3z"/>
	<path id="_x35_" class="st5" d="M424.8,693c-0.8-0.7-3-0.3-4.4,1.3c-1.4,1.6-1.4,3.9-0.6,4.6s2.1-0.5,3.5-2.1
		C424.7,695.1,425.6,693.7,424.8,693z"/>
	<path id="_x34_" class="st5" d="M412.4,681.5c-1-0.2-2.8,1.3-3.1,3.4s0.8,4,1.8,4.2s1.6-1.5,1.9-3.6
		C413.4,683.4,413.4,681.7,412.4,681.5z"/>
	<path id="_x33_" class="st5" d="M382.5,688.3c-1.1,0.4-0.8,2.3-0.1,4.5s1.6,4,2.7,3.6c1.1-0.4,2-2.7,1.3-4.9
		C385.8,689.3,383.6,688,382.5,688.3z"/>
	<path id="_x32_" class="st5" d="M375.2,693c-0.8,0.7,0.1,2.2,1.5,3.8c1.4,1.6,2.7,2.8,3.5,2.1c0.8-0.7,0.8-2.9-0.6-4.6
		C378.2,692.7,376,692.3,375.2,693z"/>
	<path id="_x31_" class="st5" d="M387.6,681.5c-1,0.2-1,1.9-0.7,4c0.4,2.1,0.9,3.8,1.9,3.6c1-0.2,2.2-2.1,1.8-4.2
		C390.4,682.8,388.7,681.3,387.6,681.5z"/>
</g>
<g id="blacks_1_">
	<path class="st2" d="M204,326.9c-0.7-7.4-0.7-14.8,0-22.1c4.6-48.6,41.1-102.6,61.3-117.3c12,14.2,27.3,38.7,38.4,63.8
		c2.6-5.2,4.5-9.1,4.5-9.1s2.2,11.9,3,25.9c7.8-8.1,15-16.8,15-16.8s-1.9,24.3-8.4,44.6c0.4,2.9,0.7,5.6,0.8,8.3
		c1.4,38.5-38.2,87.3-59.7,101.3c-16.4,10.7-38.6-15.2-49.2-50c-2.1-1.1-3.5-2.4-4-4c-2.7-9.7-17.4-30.9-17.4-30.9
		S195.1,323,204,326.9z"/>
	<path class="st2" d="M596,326.9c0.7-7.4,0.7-14.8,0-22.1c-4.6-48.6-41.1-102.6-61.3-117.3c-12,14.2-27.3,38.7-38.4,63.8
		c-2.6-5.2-4.5-9.1-4.5-9.1s-2.2,11.9-3,25.9c-7.8-8.1-15-16.8-15-16.8s1.9,24.3,8.4,44.6c-0.4,2.9-0.7,5.6-0.8,8.3
		c-1.4,38.5,38.2,87.3,59.7,101.3c16.4,10.7,38.6-15.2,49.2-50c2.1-1.1,3.5-2.4,4-4c2.7-9.7,17.4-30.9,17.4-30.9
		S604.9,323,596,326.9z"/>
</g>
<g id="earskin">
	<path class="st6" d="M544.2,206.3c9.3,9.7,37.7,52.6,41.2,88.2c3.8,38.8-17.5,85.1-31.9,77.6c-13.5-7.1-37.1-47.8-37.4-78.8
		C515.9,264.5,533.6,221.2,544.2,206.3z"/>
	<path class="st6" d="M255.8,206.3c-9.3,9.7-37.7,52.6-41.2,88.2c-3.8,38.8,17.5,85.1,31.9,77.6c13.5-7.1,37.1-47.8,37.4-78.8
		C284.1,264.5,266.4,221.2,255.8,206.3z"/>
</g>
<path id="skin-D_1_" class="st0" d="M570.8,383c-12-75.9-86-121.2-170.8-121.2S241.1,307.2,229.2,383c-3.8,24.2-35,63-14.3,96.4
	c20.7,33.5,90.6,67.1,185.1,67.1s164.4-33.6,185.1-67.1C605.9,446,574.7,407.2,570.8,383z"/>
<path id="skin" class="st7" d="M555.7,381.2c-10-80.1-81.6-101-155.7-101c-74,0-145.7,20.9-155.7,101c-2.1,16.6-24.1,62.3-6,93.7
	C256.4,506.4,317.6,538,400,538s143.6-31.6,161.7-63.1C579.8,443.5,557.7,397.8,555.7,381.2z"/>
<path id="skin-L_1_" class="st4" d="M483.5,313.6c0,11.8-37.4,46.3-83.5,46.3s-83.5-34.5-83.5-46.3s37.4-24,83.5-24
	S483.5,301.9,483.5,313.6z"/>
<g id="skin-D_2_">
	<path class="st0" d="M536.1,414c-3.6,15.4-28.5,34.3-55.7,42.1s-60.2-27.5-56.6-43s28.5-34.3,55.7-42.1
		C506.7,363.3,539.7,398.6,536.1,414z"/>
	<path class="st0" d="M263.9,414c3.6,15.4,28.5,34.3,55.7,42.1s60.2-27.5,56.6-43c-3.6-15.4-28.5-34.3-55.7-42.1
		C293.3,363.3,260.3,398.6,263.9,414z"/>
</g>
<g id="skin-D_3_">
	<path class="st0" d="M408.1,265.8c2.7-1.6,5.6-3.6,8.5-5.9c8.2-6.7,12.7-13.5,10.2-15.1s-11.2,2.4-19.3,9.1
		c-0.9,0.7-1.7,1.4-2.5,2.2c0.5-1.7,0.9-3.6,1.2-5.5c1.5-9.3,0.1-17.3-3.1-17.9s-6.9,6.4-8.4,15.7c-0.3,2.1-0.5,4.1-0.6,6
		c-0.2-0.5-0.4-1-0.6-1.5c-3.8-9.6-9.3-17.1-12.4-16.8c-3,0.3-2.4,8.3,1.4,17.8c2,5,4.4,9.1,6.8,12.5
		C395,274.8,405.4,267.4,408.1,265.8z"/>
</g>
<g id="eyes">
	<g id="blacks">
		<path d="M434.7,474.4c29.5,17.6,49.9,61,32.8,93.1c-37.8,12.6-73.9,8.9-101.4-13.3c-27.5-22.2-25.8-58.4-16.1-81.7
			C374,460.4,409.8,459.6,434.7,474.4z"/>
		<path d="M565.8,474.4c-29.5,17.6-49.9,61-32.8,93.1c37.8,12.6,73.9,8.9,101.4-13.3c27.5-22.2,25.8-58.4,16.1-81.7
			C626.5,460.4,590.7,459.6,565.8,474.4z"/>
	</g>
	<g id="eye-D">
		<path d="M432.3,484.1c28,15.7,41.1,46.9,32.2,78.6c-35.8,11.2-73.4,4.2-95.2-16.9c-18.5-17.9-21.3-42.1-12.2-62.9
			C380,472,408.7,470.8,432.3,484.1z"/>
		<path d="M568.2,484.1c-28,15.7-41.1,46.9-32.2,78.6c35.8,11.2,73.4,4.2,95.2-16.9c18.5-17.9,21.3-42.1,12.2-62.9
			C620.5,472,591.8,470.8,568.2,484.1z"/>
	</g>
	<g id="eye">
		<path d="M354.8,489.5c23.4-7.8,51.3-7.6,74.5,3.9c22.9,11.4,36.7,31.1,37.9,53.2c-0.3,5.3-1.1,10.7-2.6,16.1
			c-35.8,11.2-73.4,4.2-95.2-16.9C352.8,529.8,348.8,508.7,354.8,489.5z"/>
		<path d="M645.7,489.5c-23.4-7.8-51.3-7.6-74.5,3.9c-22.9,11.4-36.7,31.1-37.9,53.2c0.3,5.3,1.1,10.7,2.6,16.1
			c35.8,11.2,73.4,4.2,95.2-16.9C647.7,529.8,651.7,508.7,645.7,489.5z"/>
	</g>
	<g id="eye-L">
		<path d="M416.7,502.9c18.6,0,35.2,9.4,45.7,24c2.7,6.2,4.3,12.9,4.7,19.7c-0.3,5.3-1.1,10.7-2.6,16.1
			c-35.8,11.2-73.4,4.2-95.2-16.9c-2-2-3.9-4-5.5-6.1C372.7,518,393.1,502.9,416.7,502.9z"/>
		<path d="M583.8,502.9c-18.6,0-35.2,9.4-45.7,24c-2.7,6.2-4.3,12.9-4.7,19.7c0.3,5.3,1.1,10.7,2.6,16.1
			c35.8,11.2,73.4,4.2,95.2-16.9c2-2,3.9-4,5.5-6.1C627.8,518,607.4,502.9,583.8,502.9z"/>
	</g>
</g>
<g id="r_x3C_Clip_Group_x3E_">
	<defs>
		<path id="rpath" d="M568.2,484.1c-28,15.7-41.1,46.9-32.2,78.6c35.8,11.2,73.4,4.2,95.2-16.9c18.5-17.9,21.3-42.1,12.2-62.9
			C620.5,472,591.8,470.8,568.2,484.1z"/>
	</defs>
	<clipPath id="rpath_1_">
		<use xlink:href="#rpath"  overflow="visible"/>
	</clipPath>
	<circle id="eyes-mask-r" clip-path="url(#rpath_1_)" fill="#5D5D5D" cx="995" cy="3" r="5"/>
</g>
<g id="l_x3C_Clip_Group_x3E_">
	<defs>
		<path id="lpath" d="M432.3,484.1c28,15.7,41.1,46.9,32.2,78.6
			c-35.8,11.2-73.4,4.2-95.2-16.9c-18.5-17.9-21.3-42.1-12.2-62.9C380,472,408.7,470.8,432.3,484.1z"/>
	</defs>
	<clipPath id="lpath_1_">
		<use xlink:href="#lpath"  overflow="visible"/>
	</clipPath>
	<circle id="eyes-mask-l" clip-path="url(#lpath_1_)" fill="#5D5D5D" cx="5" cy="3" r="5"/>
</g>
<g>
	<path class="st2" d="M531.2,355.5c0,0-0.9-1.6-2.8-4.2c-0.2-0.3-0.5-0.7-0.8-1s-0.6-0.7-0.9-1c-0.6-0.7-1.4-1.5-2.1-2.3
		c-1.5-1.7-3.4-3.3-5.5-5.1c-1-0.9-2.2-1.7-3.4-2.6s-2.5-1.7-3.8-2.6c-1.3-0.8-2.7-1.6-4.2-2.5c-0.7-0.4-1.4-0.8-2.2-1.2
		c-0.8-0.4-1.5-0.7-2.3-1.1c-1.5-0.7-3.1-1.5-4.7-2.2c-1.6-0.6-3.3-1.3-5-1.9c-1.7-0.7-3.4-1.1-5.1-1.7c-1.7-0.5-3.5-1-5.3-1.4
		s-3.5-0.8-5.3-1.1c-1.8-0.3-3.6-0.6-5.3-0.8c-0.9-0.1-1.8-0.2-2.6-0.4c-0.9-0.1-1.8-0.1-2.6-0.2c-1.8-0.1-3.5-0.2-5.2-0.3
		c-1.7,0-3.4,0-5,0c-0.8,0-1.6,0-2.4,0.1c-0.8,0.1-1.6,0.1-2.4,0.2c-1.6,0.2-3.1,0.3-4.5,0.5c-1.5,0.2-2.9,0.5-4.2,0.7
		c-1.3,0.3-2.6,0.5-3.8,0.8s-2.4,0.6-3.5,1c-1.1,0.3-2.1,0.6-3,0.9s-1.7,0.7-2.4,1c-2.9,1.2-4.5,2.1-4.5,2.1
		c-0.4,0.2-0.7,0.6-0.8,1.1c-0.2,0.9,0.4,1.8,1.3,2c0,0,1.8,0.4,4.9,0.8c0.8,0.1,1.6,0.2,2.5,0.4c0.9,0.2,1.8,0.3,2.9,0.5
		c1,0.2,2.1,0.3,3.2,0.5c1.1,0.2,2.3,0.4,3.6,0.6c1.2,0.2,2.5,0.4,3.8,0.6c1.3,0.3,2.7,0.5,4.1,0.8c0.7,0.1,1.4,0.2,2.1,0.4
		c0.7,0.1,1.4,0.3,2.2,0.4c1.5,0.3,2.9,0.6,4.4,0.8c1.5,0.3,3,0.6,4.6,1c0.8,0.1,1.5,0.3,2.3,0.4c0.8,0.2,1.5,0.4,2.3,0.5
		c1.6,0.3,3.1,0.7,4.7,1c1.6,0.4,3.1,0.8,4.7,1.1c1.6,0.3,3.1,0.8,4.7,1.2c1.6,0.4,3.1,0.7,4.7,1.2c1.5,0.4,3.1,0.8,4.6,1.2
		c1.5,0.4,3,0.9,4.4,1.3c0.7,0.2,1.5,0.4,2.2,0.6s1.4,0.4,2.1,0.7c1.4,0.4,2.8,0.9,4.1,1.2c1.3,0.4,2.6,0.9,3.9,1.3
		c1.3,0.4,2.5,0.8,3.7,1.2c2.3,0.9,4.5,1.5,6.4,2.3s3.7,1.3,5,1.9c2.8,1.1,4.5,1.7,4.5,1.7h0.1c0.4,0.1,0.9,0.1,1.3-0.1
		C531.4,357.3,531.6,356.3,531.2,355.5z"/>
	<path class="st2" d="M374,329c0,0-1.6-0.9-4.5-2.1c-0.7-0.3-1.5-0.7-2.4-1s-1.9-0.6-3-0.9s-2.2-0.6-3.5-1c-1.2-0.3-2.5-0.5-3.8-0.8
		s-2.7-0.5-4.2-0.7s-3-0.3-4.5-0.5c-0.8-0.1-1.6-0.1-2.4-0.2c-0.8,0-1.6-0.1-2.4-0.1c-1.6,0-3.3,0-5,0c-1.7,0.1-3.4,0.2-5.2,0.3
		c-0.9,0.1-1.8,0.1-2.6,0.2c-0.9,0.1-1.8,0.2-2.6,0.4c-1.8,0.3-3.6,0.5-5.3,0.8c-1.8,0.4-3.5,0.8-5.3,1.1c-1.8,0.4-3.5,0.9-5.3,1.4
		c-1.7,0.5-3.5,1-5.1,1.7c-1.7,0.6-3.3,1.3-5,1.9c-1.6,0.7-3.2,1.4-4.7,2.2c-0.8,0.4-1.5,0.7-2.3,1.1c-0.7,0.4-1.5,0.8-2.2,1.2
		c-1.4,0.8-2.8,1.6-4.2,2.5c-1.3,0.9-2.6,1.8-3.8,2.6c-1.2,0.9-2.4,1.7-3.4,2.6c-2.1,1.8-4,3.4-5.5,5.1c-0.8,0.8-1.5,1.6-2.1,2.3
		c-0.3,0.4-0.6,0.7-0.9,1c-0.3,0.4-0.5,0.7-0.8,1c-1.9,2.6-2.8,4.2-2.8,4.2c-0.5,0.8-0.2,1.8,0.6,2.3c0.4,0.2,0.9,0.3,1.3,0.1h0.1
		c0,0,1.8-0.6,4.5-1.7c1.3-0.6,3.1-1.1,5-1.9s4.1-1.4,6.4-2.3c1.1-0.4,2.4-0.8,3.7-1.2c1.3-0.4,2.5-0.9,3.9-1.3s2.7-0.8,4.1-1.2
		c0.7-0.2,1.4-0.4,2.1-0.7c0.7-0.2,1.5-0.4,2.2-0.6c1.5-0.4,2.9-0.9,4.4-1.3s3-0.8,4.6-1.2c1.5-0.5,3.1-0.8,4.7-1.2
		c1.6-0.4,3.1-0.9,4.7-1.2c1.6-0.4,3.2-0.7,4.7-1.1c1.6-0.3,3.1-0.7,4.7-1c0.8-0.2,1.6-0.4,2.3-0.5c0.8-0.2,1.6-0.3,2.3-0.4
		c1.5-0.3,3.1-0.6,4.6-1c1.5-0.3,3-0.5,4.4-0.8c0.7-0.1,1.4-0.3,2.2-0.4c0.7-0.1,1.4-0.2,2.1-0.4c1.4-0.3,2.8-0.5,4.1-0.8
		c1.3-0.3,2.6-0.4,3.8-0.6c1.2-0.2,2.4-0.4,3.6-0.6c1.1-0.2,2.2-0.3,3.2-0.5s2-0.3,2.9-0.5s1.8-0.2,2.5-0.4c3.1-0.4,4.9-0.8,4.9-0.8
		c0.9-0.2,1.5-1.1,1.3-2C374.7,329.6,374.4,329.2,374,329z"/>
</g>
<path id="skin-L_2_" class="st4" d="M429.1,473.1c0,12.6-13,4-29.1,4s-29.1,8.7-29.1-4s13-22.9,29.1-22.9
	C416.1,450.2,429.1,460.4,429.1,473.1z"/>
<path id="nose" class="st17" d="M400,470.5c-16.1,0-29.1-3.7-29.1,5.3S398.2,492,400,492s29.1-7.3,29.1-16.2S416.1,470.5,400,470.5z
	"/>
<g id="blacks_3_">
	
		<ellipse transform="matrix(0.8614 -0.508 0.508 0.8614 -187.4698 277.8018)" class="st18" cx="415.2" cy="482.4" rx="7.9" ry="4.3"/>
	<path class="st2" d="M387,478.7c3.8,2.2,5.9,5.7,4.7,7.7c-1.2,2-5.2,1.9-9-0.3s-5.9-5.7-4.7-7.7C379.2,476.3,383.2,476.5,387,478.7
		z"/>
</g>
<path id="nose-L" class="st19" d="M415.4,471.7c0,0.5-1.6,1.5-3.8,1.6c-2.3,0.2-4.3-0.5-4.4-1c0-0.5,2-0.8,4.2-0.9
	C413.7,471.2,415.3,471.2,415.4,471.7z"/>
<path id="blacks_4_" class="st2" d="M400.2,507c-14,0-26.2,4.1-32.9,7.8c-2.3,1.2-1.4,4.7,1.2,4.7c0,0,18.9-3.9,31.7-3.9
	s31.7,3.9,31.7,3.9c2.6,0,3.5-3.5,1.2-4.7C426.3,511.1,414.1,507,400.2,507z"/>
<rect class="st20" width="800" height="800"/>
</svg>
