<svg width="18" height="18" viewBox="0 0 18 18" fill="none" xmlns="http://www.w3.org/2000/svg">
<g clip-path="url(#clip0_368_613)">
<path d="M18 0H0V18H18V0Z" fill="#616160"/>
<path d="M14.3125 7.40625H14.125C14.0938 4.59375 11.8125 2.3125 9 2.3125C6.1875 2.3125 3.875 4.59375 3.875 7.40625H3.6875C3.375 7.40625 3.125 7.65625 3.125 7.96875V11.7812C3.125 14.0625 4.96875 15.9062 7.25 15.9062H10.7813C13.0625 15.9062 14.9063 14.0625 14.9063 11.7812V7.96875C14.875 7.65625 14.625 7.40625 14.3125 7.40625ZM10.375 13.6875C10.4375 14.1562 10.0938 14.5625 9.625 14.5625H8.375C7.90625 14.5625 7.5625 14.1562 7.625 13.6875L7.96875 11.3438C7.75 11.0938 7.59375 10.75 7.59375 10.4062C7.59375 9.625 8.21875 9 9 9C9.78125 9 10.4063 9.625 10.4063 10.4062C10.4063 10.7812 10.25 11.0938 10.0312 11.3438L10.375 13.6875ZM5.75 7.40625C5.78125 5.625 7.21875 4.1875 9 4.1875C10.7813 4.1875 12.25 5.625 12.25 7.40625H5.75Z" fill="white"/>
</g>
<defs>
<clipPath id="clip0_368_613">
<rect width="18" height="18" rx="2" fill="white"/>
</clipPath>
</defs>
</svg>
