<svg width="18" height="18" viewBox="0 0 18 18" fill="none" xmlns="http://www.w3.org/2000/svg">
<g clip-path="url(#clip0_368_454)">
<path d="M18 0H0V18H18V0Z" fill="#616160"/>
<path d="M10.2813 5.9375V9.6875H10.0625C8.125 9.6875 6.5625 11.25 6.5625 13.1875V13.3438C6.5625 13.7188 6.875 14.0625 7.28125 14.0625H10.3125H15.8125V9.65625V5.9375C15.8125 5.59375 15.5312 5.3125 15.1875 5.3125H10.875C10.5313 5.3125 10.2813 5.59375 10.2813 5.9375Z" fill="white"/>
<path d="M5.28125 13.3125V13.1562C5.28125 13.0312 5.28125 12.9063 5.3125 12.7813H2.875C3.0625 11.7188 3.96875 10.9375 5.09375 10.9375H5.3125H5.75C6.1875 10.9375 6.5625 10.5625 6.5625 10.125V9.6875V6.5625H9V5.9375C9 5.71875 9.03125 5.53125 9.09375 5.3125H5.9375C5.59375 5.3125 5.3125 5.59375 5.3125 5.9375V9.6875H5.09375C3.15625 9.6875 1.59375 11.25 1.59375 13.1875V13.3438C1.59375 13.7188 1.90625 14.0625 2.3125 14.0625H5.34375H5.4375C5.34375 13.8125 5.28125 13.5625 5.28125 13.3125Z" fill="white"/>
</g>
<defs>
<clipPath id="clip0_368_454">
<rect width="18" height="18" rx="2" fill="white"/>
</clipPath>
</defs>
</svg>
