<svg width="18" height="18" viewBox="0 0 18 18" fill="none" xmlns="http://www.w3.org/2000/svg">
<g clip-path="url(#clip0_368_616)">
<path d="M18 0H0V18H18V0Z" fill="#616160"/>
<path d="M14.5312 5.53125L9.6875 2.5625C9.25 2.3125 8.71875 2.3125 8.28125 2.5625L3.4375 5.53125C3.09375 5.75 2.875 6.125 2.875 6.5625V11.4375C2.875 11.8437 3.09375 12.25 3.4375 12.4688L8.28125 15.4375C8.71875 15.6875 9.25 15.6875 9.6875 15.4375L14.5312 12.4688C14.875 12.25 15.0938 11.875 15.0938 11.4375V6.5625C15.0938 6.15625 14.9062 5.75 14.5312 5.53125ZM4.53125 12.1562C4.125 11.9062 3.8125 11.4062 3.8125 11C3.8125 10.5938 4.125 10.4688 4.53125 10.7188C4.9375 10.9688 5.25 11.4688 5.25 11.875C5.25 12.2812 4.90625 12.375 4.53125 12.1562ZM4.53125 8.8125C4.125 8.5625 3.8125 8.0625 3.8125 7.65625C3.8125 7.25 4.125 7.125 4.53125 7.375C4.9375 7.625 5.25 8.125 5.25 8.53125C5.25 8.9375 4.90625 9.0625 4.53125 8.8125ZM6.0625 11.4062C5.65625 11.1562 5.34375 10.6562 5.34375 10.25C5.34375 9.84375 5.65625 9.71875 6.0625 9.96875C6.46875 10.2188 6.78125 10.7187 6.78125 11.125C6.78125 11.5312 6.46875 11.6562 6.0625 11.4062ZM7.625 14C7.21875 13.75 6.90625 13.25 6.90625 12.8438C6.90625 12.4375 7.21875 12.3125 7.625 12.5625C8.03125 12.8125 8.34375 13.3125 8.34375 13.7188C8.34375 14.125 8.03125 14.25 7.625 14ZM7.625 10.6562C7.21875 10.4062 6.90625 9.90625 6.90625 9.5C6.90625 9.09375 7.21875 8.96875 7.625 9.21875C8.03125 9.46875 8.34375 9.96875 8.34375 10.375C8.34375 10.7812 8.03125 10.9062 7.625 10.6562ZM8.03125 5.96875C8.03125 5.65625 8.46875 5.40625 9 5.40625C9.53125 5.40625 9.96875 5.65625 9.96875 5.96875C9.96875 6.28125 9.53125 6.53125 9 6.53125C8.46875 6.53125 8.03125 6.28125 8.03125 5.96875ZM10.375 14C9.96875 14.25 9.65625 14.0938 9.65625 13.7188C9.65625 13.3438 9.96875 12.8125 10.375 12.5625C10.7812 12.3125 11.0938 12.4688 11.0938 12.8438C11.0938 13.2188 10.7812 13.75 10.375 14ZM10.375 10.6562C9.96875 10.9062 9.65625 10.75 9.65625 10.375C9.65625 10 9.96875 9.46875 10.375 9.21875C10.7812 8.96875 11.0938 9.125 11.0938 9.5C11.0938 9.875 10.7812 10.4375 10.375 10.6562ZM13.4687 12.1562C13.0625 12.4062 12.75 12.25 12.75 11.875C12.75 11.5 13.0625 10.9688 13.4687 10.7188C13.875 10.4688 14.1875 10.625 14.1875 11C14.1875 11.375 13.875 11.9062 13.4687 12.1562ZM13.4687 8.8125C13.0625 9.0625 12.75 8.90625 12.75 8.53125C12.75 8.15625 13.0625 7.625 13.4687 7.375C13.875 7.125 14.1875 7.28125 14.1875 7.65625C14.1875 8.03125 13.875 8.59375 13.4687 8.8125Z" fill="white"/>
</g>
<defs>
<clipPath id="clip0_368_616">
<rect width="18" height="18" rx="2" fill="white"/>
</clipPath>
</defs>
</svg>
