<svg width="18" height="18" viewBox="0 0 18 18" fill="none" xmlns="http://www.w3.org/2000/svg">
<g clip-path="url(#clip0_368_620)">
<path d="M18 0H0V18H18V0Z" fill="#616160"/>
<path d="M15.25 8.1875C13.8438 6.28125 11.5625 5.03125 9 5.03125C6.4375 5.03125 4.1875 6.28125 2.75 8.1875C2.4375 8.625 2.4375 9.21875 2.75 9.65625C4.15625 11.5625 6.4375 12.8125 9 12.8125C11.5625 12.8125 13.8125 11.5625 15.25 9.65625C15.5625 9.25 15.5625 8.625 15.25 8.1875ZM9 11.6562C7.5 11.6562 6.28125 10.4375 6.28125 8.9375C6.28125 7.4375 7.5 6.21875 9 6.21875C10.5 6.21875 11.7188 7.4375 11.7188 8.9375C11.7188 10.4375 10.5 11.6562 9 11.6562Z" fill="white"/>
<path d="M9.59375 8.78125C10.0252 8.78125 10.375 8.43147 10.375 8C10.375 7.56853 10.0252 7.21875 9.59375 7.21875C9.16228 7.21875 8.8125 7.56853 8.8125 8C8.8125 8.43147 9.16228 8.78125 9.59375 8.78125Z" fill="white"/>
</g>
<defs>
<clipPath id="clip0_368_620">
<rect width="18" height="18" rx="2" fill="white"/>
</clipPath>
</defs>
</svg>
