<svg width="49" height="49" viewBox="0 0 49 49" fill="none" xmlns="http://www.w3.org/2000/svg">
<g clip-path="url(#clip0_166_65)">
<path d="M44.3212 49H4.67882C2.04167 49 0 46.8733 0 44.3212V4.67882C0 2.12674 2.12674 0 4.67882 0H44.2361C46.8733 0 48.9149 2.12674 48.9149 4.67882V44.2361C49 46.8733 46.8733 49 44.3212 49Z" fill="#616160"/>
<path d="M39.5573 15.0573L26.3716 6.97575C25.1806 6.29519 23.7344 6.29519 22.5434 6.97575L9.35767 15.0573C8.4219 15.6528 7.82642 16.6737 7.82642 17.8646V31.1355C7.82642 32.2414 8.4219 33.3473 9.35767 33.9428L22.5434 42.0244C23.7344 42.7049 25.1806 42.7049 26.3716 42.0244L39.5573 33.9428C40.4931 33.3473 41.0886 32.3264 41.0886 31.1355V17.8646C41.0886 16.7587 40.5782 15.6528 39.5573 15.0573ZM12.3351 33.0921C11.2292 32.4115 10.3785 31.0504 10.3785 29.9445C10.3785 28.8386 11.2292 28.4983 12.3351 29.1789C13.441 29.8594 14.2917 31.2205 14.2917 32.3264C14.2917 33.4323 13.3559 33.6876 12.3351 33.0921ZM12.3351 23.9896C11.2292 23.3091 10.3785 21.948 10.3785 20.8421C10.3785 19.7362 11.2292 19.3959 12.3351 20.0764C13.441 20.757 14.2917 22.1181 14.2917 23.224C14.2917 24.3299 13.3559 24.6702 12.3351 23.9896ZM16.5035 31.0504C15.3976 30.3698 14.5469 29.0087 14.5469 27.9028C14.5469 26.7969 15.3976 26.4567 16.5035 27.1372C17.6094 27.8178 18.4601 29.1789 18.4601 30.2848C18.4601 31.3907 17.6094 31.731 16.5035 31.0504ZM20.757 38.1112C19.6511 37.4306 18.8004 36.0695 18.8004 34.9636C18.8004 33.8577 19.6511 33.5174 20.757 34.198C21.8629 34.8785 22.7136 36.2396 22.7136 37.3455C22.7136 38.4514 21.8629 38.7917 20.757 38.1112ZM20.757 29.0087C19.6511 28.3282 18.8004 26.9671 18.8004 25.8612C18.8004 24.7553 19.6511 24.415 20.757 25.0955C21.8629 25.7761 22.7136 27.1372 22.7136 28.2431C22.7136 29.349 21.8629 29.6893 20.757 29.0087ZM21.8629 16.2483C21.8629 15.3976 23.0538 14.7171 24.5 14.7171C25.9462 14.7171 27.1372 15.3976 27.1372 16.2483C27.1372 17.099 25.9462 17.7796 24.5 17.7796C23.0538 17.7796 21.8629 17.099 21.8629 16.2483ZM28.2431 38.1112C27.1372 38.7917 26.2865 38.3664 26.2865 37.3455C26.2865 36.3247 27.1372 34.8785 28.2431 34.198C29.349 33.5174 30.1997 33.9428 30.1997 34.9636C30.1997 35.9844 29.349 37.4306 28.2431 38.1112ZM28.2431 29.0087C27.1372 29.6893 26.2865 29.2639 26.2865 28.2431C26.2865 27.2223 27.1372 25.7761 28.2431 25.0955C29.349 24.415 30.1997 24.8403 30.1997 25.8612C30.1997 26.882 29.349 28.4132 28.2431 29.0087ZM36.665 33.0921C35.5591 33.7726 34.7084 33.3473 34.7084 32.3264C34.7084 31.3056 35.5591 29.8594 36.665 29.1789C37.7709 28.4983 38.6216 28.9237 38.6216 29.9445C38.6216 30.9653 37.7709 32.4115 36.665 33.0921ZM36.665 23.9896C35.5591 24.6702 34.7084 24.2448 34.7084 23.224C34.7084 22.2032 35.5591 20.757 36.665 20.0764C37.7709 19.3959 38.6216 19.8212 38.6216 20.8421C38.6216 21.8629 37.7709 23.3942 36.665 23.9896Z" fill="white"/>
</g>
<defs>
<clipPath id="clip0_166_65">
<rect width="49" height="49" fill="white"/>
</clipPath>
</defs>
</svg>
