<svg width="49" height="49" viewBox="0 0 49 49" fill="none" xmlns="http://www.w3.org/2000/svg">
<g clip-path="url(#clip0_166_69)">
<path d="M44.3212 49H4.67882C2.04167 49 0 46.8733 0 44.3212V4.67882C0 2.12674 2.12674 0 4.67882 0H44.2361C46.8733 0 48.9149 2.12674 48.9149 4.67882V44.2361C49 46.8733 46.8733 49 44.3212 49Z" fill="#616160"/>
<path d="M34.9636 8.42188H30.7101H18.29H13.0157C10.5486 8.42188 8.59204 10.3785 8.59204 12.8455V35.7292C8.59204 38.1962 10.5486 40.1528 13.0157 40.1528H35.8143C38.2813 40.1528 40.2379 38.1962 40.2379 35.7292V13.8663L34.9636 8.42188ZM30.9653 11.5694V17.5243H26.2014V11.5694H30.9653ZM37.941 35.7292C37.941 36.8351 37.0052 37.7708 35.8993 37.7708V26.2014C35.8993 25.0955 34.9636 24.1597 33.8577 24.1597H15.0573C13.9514 24.1597 13.0157 25.0955 13.0157 26.2014V37.7708C11.9097 37.7708 11.0591 36.8351 11.0591 35.7292V12.9306C11.0591 11.8247 11.9948 10.8889 13.1007 10.8889H16.4184V17.2691C16.4184 18.2899 17.2691 19.1406 18.29 19.1406H30.7101C31.7309 19.1406 32.5816 18.2899 32.5816 17.2691V10.8889H33.9427L37.941 14.8872V35.7292Z" fill="white"/>
</g>
<defs>
<clipPath id="clip0_166_69">
<rect width="49" height="49" fill="white"/>
</clipPath>
</defs>
</svg>
